<svg version="1.1" xmlns="http://www.w3.org/2000/svg" xmlns:xlink="http://www.w3.org/1999/xlink" width="666.130859375" height="352"><defs/><g><g transform="translate(-38,-150) scale(1,1)"><path fill="#ffdf82" stroke="none" d="M 488 168 L 589 168 L 599 178 L 599 206 L 488 206 L 488 168"/></g><g transform="translate(-38,-150) scale(1,1)"><path fill="none" stroke="#000000" d="M 488 168 L 589 168 L 599 178 L 599 206 L 488 206 L 488 168 L 488 168" stroke-miterlimit="10"/></g><g transform="translate(-38,-150) scale(1,1)"><path fill="none" stroke="#000000" d="M 589 168 L 589 178 L 599 178 L 589 168" stroke-miterlimit="10"/></g><g transform="translate(-38,-150) scale(1,1)"><g><path fill="none" stroke="none"/><text fill="#000000" stroke="none" font-family="Arial" font-size="13px" font-style="normal" font-weight="normal" text-decoration="none" x="493" y="186">Strategy Object</text></g></g><g transform="translate(-38,-150) scale(1,1)"><path fill="#ffdf82" stroke="none" d="M 48 160 L 106 160 L 116 170 L 116 198 L 48 198 L 48 160"/></g><g transform="translate(-38,-150) scale(1,1)"><path fill="none" stroke="#000000" d="M 48 160 L 106 160 L 116 170 L 116 198 L 48 198 L 48 160 L 48 160" stroke-miterlimit="10"/></g><g transform="translate(-38,-150) scale(1,1)"><path fill="none" stroke="#000000" d="M 106 160 L 106 170 L 116 170 L 106 160" stroke-miterlimit="10"/></g><g transform="translate(-38,-150) scale(1,1)"><g><path fill="none" stroke="none"/><text fill="#000000" stroke="none" font-family="Arial" font-size="13px" font-style="normal" font-weight="normal" text-decoration="none" x="53" y="178">Context</text></g></g><g transform="translate(-38,-150) scale(1,1)"><rect fill="#C0C0C0" stroke="none" x="399" y="207" width="168" height="120" opacity="0.2"/></g><g transform="translate(-38,-150) scale(1,1)"><rect fill="#ffffff" stroke="none" x="392" y="200" width="168" height="120"/></g><g transform="translate(-38,-150) scale(1,1)"><path fill="none" stroke="#000000" d="M 392 200 L 560 200 L 560 320 L 392 320 L 392 200 Z Z" stroke-miterlimit="10"/></g><g transform="translate(-38,-150) scale(1,1)"><path fill="none" stroke="#000000" d="M 392 225 L 560 225" stroke-miterlimit="10"/></g><g transform="translate(-38,-150) scale(1,1)"><path fill="none" stroke="#000000" d="M 392 235 L 560 235" stroke-miterlimit="10"/></g><g transform="translate(-38,-150) scale(1,1)"><g><path fill="none" stroke="none"/><text fill="#000000" stroke="none" font-family="Arial" font-size="13px" font-style="normal" font-weight="bold" text-decoration="none" x="446.73095703125" y="219.5">Behaviour</text></g></g><g transform="translate(-38,-150) scale(1,1)"><g><path fill="none" stroke="none"/><text fill="#000000" stroke="none" font-family="Arial" font-size="13px" font-style="normal" font-weight="normal" text-decoration="none" x="397" y="252.5">+Move(): void</text></g></g><g transform="translate(-38,-150) scale(1,1)"><g><path fill="none" stroke="none"/><text fill="#000000" stroke="none" font-family="Arial" font-size="13px" font-style="normal" font-weight="normal" text-decoration="none" x="397" y="267.5">+Attack(Entity): void</text></g></g><g transform="translate(-38,-150) scale(1,1)"><g><path fill="none" stroke="none"/><text fill="#000000" stroke="none" font-family="Arial" font-size="13px" font-style="normal" font-weight="normal" text-decoration="none" x="397" y="282.5">+Jump(): void</text></g></g><g transform="translate(-38,-150) scale(1,1)"><g><path fill="none" stroke="none"/><text fill="#000000" stroke="none" font-family="Arial" font-size="13px" font-style="normal" font-weight="normal" text-decoration="none" x="397" y="297.5">+Crouch(): void</text></g></g><g transform="translate(-38,-150) scale(1,1)"><g><path fill="none" stroke="none"/><text fill="#000000" stroke="none" font-family="Arial" font-size="13px" font-style="normal" font-weight="normal" text-decoration="none" x="397" y="312.5">+Dodge(): void</text></g></g><g transform="translate(-38,-150) scale(1,1)"><rect fill="#C0C0C0" stroke="none" x="247" y="367" width="142.66259765625" height="44" opacity="0.2"/></g><g transform="translate(-38,-150) scale(1,1)"><rect fill="#ffffff" stroke="none" x="240" y="360" width="142.66259765625" height="44"/></g><g transform="translate(-38,-150) scale(1,1)"><path fill="none" stroke="#000000" d="M 240 360 L 382.66259765625 360 L 382.66259765625 404 L 240 404 L 240 360 Z Z" stroke-miterlimit="10"/></g><g transform="translate(-38,-150) scale(1,1)"><path fill="none" stroke="#000000" d="M 240 385 L 382.66259765625 385" stroke-miterlimit="10"/></g><g transform="translate(-38,-150) scale(1,1)"><path fill="none" stroke="#000000" d="M 240 395 L 382.66259765625 395" stroke-miterlimit="10"/></g><g transform="translate(-38,-150) scale(1,1)"><g><path fill="none" stroke="none"/><text fill="#000000" stroke="none" font-family="Arial" font-size="13px" font-style="normal" font-weight="bold" text-decoration="none" x="249.908203125" y="379.5">AggressiveBehaviour</text></g></g><g transform="translate(-38,-150) scale(1,1)"><rect fill="#C0C0C0" stroke="none" x="431" y="367" width="117.36083984375" height="44" opacity="0.2"/></g><g transform="translate(-38,-150) scale(1,1)"><rect fill="#ffffff" stroke="none" x="424" y="360" width="117.36083984375" height="44"/></g><g transform="translate(-38,-150) scale(1,1)"><path fill="none" stroke="#000000" d="M 424 360 L 541.36083984375 360 L 541.36083984375 404 L 424 404 L 424 360 Z Z" stroke-miterlimit="10"/></g><g transform="translate(-38,-150) scale(1,1)"><path fill="none" stroke="#000000" d="M 424 385 L 541.36083984375 385" stroke-miterlimit="10"/></g><g transform="translate(-38,-150) scale(1,1)"><path fill="none" stroke="#000000" d="M 424 395 L 541.36083984375 395" stroke-miterlimit="10"/></g><g transform="translate(-38,-150) scale(1,1)"><g><path fill="none" stroke="none"/><text fill="#000000" stroke="none" font-family="Arial" font-size="13px" font-style="normal" font-weight="bold" text-decoration="none" x="432.457763671875" y="379.5">NeutralBehaviour</text></g></g><g transform="translate(-38,-150) scale(1,1)"><rect fill="#C0C0C0" stroke="none" x="591" y="367" width="110.130859375" height="44" opacity="0.2"/></g><g transform="translate(-38,-150) scale(1,1)"><rect fill="#ffffff" stroke="none" x="584" y="360" width="110.130859375" height="44"/></g><g transform="translate(-38,-150) scale(1,1)"><path fill="none" stroke="#000000" d="M 584 360 L 694.130859375 360 L 694.130859375 404 L 584 404 L 584 360 Z Z" stroke-miterlimit="10"/></g><g transform="translate(-38,-150) scale(1,1)"><path fill="none" stroke="#000000" d="M 584 385 L 694.130859375 385" stroke-miterlimit="10"/></g><g transform="translate(-38,-150) scale(1,1)"><path fill="none" stroke="#000000" d="M 584 395 L 694.130859375 395" stroke-miterlimit="10"/></g><g transform="translate(-38,-150) scale(1,1)"><g><path fill="none" stroke="none"/><text fill="#000000" stroke="none" font-family="Arial" font-size="13px" font-style="normal" font-weight="bold" text-decoration="none" x="592.81640625" y="379.5">AfraidBehaviour</text></g></g><g transform="translate(-38,-150) scale(1,1)"><path fill="none" stroke="#000000" d="M 342 359 L 394 321" stroke-miterlimit="10"/></g><g transform="translate(-38,-150) scale(1,1)"><path fill="#FFFFFF" stroke="none" d="M 382.5568637014823 339.7897480465691 L 394 321 L 372.62212246476054 326.19483898579193"/></g><g transform="translate(-38,-150) scale(1,1)"><path fill="none" stroke="#000000" d="M 382.5568637014823 339.7897480465691 L 394 321 L 372.62212246476054 326.19483898579193 L 382.5568637014823 339.7897480465691" stroke-miterlimit="10"/></g><g transform="translate(-38,-150) scale(1,1)"><path fill="none" stroke="#000000" d="M 481 359 L 479 321" stroke-miterlimit="10"/></g><g transform="translate(-38,-150) scale(1,1)"><path fill="#FFFFFF" stroke="none" d="M 488.4756756319442 340.8547619305339 L 479 321 L 471.6608776957469 341.73975129559693"/></g><g transform="translate(-38,-150) scale(1,1)"><path fill="none" stroke="#000000" d="M 488.4756756319442 340.8547619305339 L 479 321 L 471.6608776957469 341.73975129559693 L 488.4756756319442 340.8547619305339" stroke-miterlimit="10"/></g><g transform="translate(-38,-150) scale(1,1)"><path fill="none" stroke="#000000" d="M 608 359 L 558 321" stroke-miterlimit="10"/></g><g transform="translate(-38,-150) scale(1,1)"><path fill="#FFFFFF" stroke="none" d="M 579.2764925427128 326.595611233805 L 558 321 L 569.0880575085101 340.00144680512443"/></g><g transform="translate(-38,-150) scale(1,1)"><path fill="none" stroke="#000000" d="M 579.2764925427128 326.595611233805 L 558 321 L 569.0880575085101 340.00144680512443 L 579.2764925427128 326.595611233805" stroke-miterlimit="10"/></g><g transform="translate(-38,-150) scale(1,1)"><rect fill="#C0C0C0" stroke="none" x="87" y="199" width="239.87060546875" height="130" opacity="0.2"/></g><g transform="translate(-38,-150) scale(1,1)"><rect fill="#ffffff" stroke="none" x="80" y="192" width="239.87060546875" height="130"/></g><g transform="translate(-38,-150) scale(1,1)"><path fill="none" stroke="#000000" d="M 80 192 L 319.87060546875 192 L 319.87060546875 322 L 80 322 L 80 192 Z Z" stroke-miterlimit="10"/></g><g transform="translate(-38,-150) scale(1,1)"><path fill="none" stroke="#000000" d="M 80 217 L 319.87060546875 217" stroke-miterlimit="10"/></g><g transform="translate(-38,-150) scale(1,1)"><path fill="none" stroke="#000000" d="M 80 255 L 319.87060546875 255" stroke-miterlimit="10"/></g><g transform="translate(-38,-150) scale(1,1)"><g><path fill="none" stroke="none"/><text fill="#000000" stroke="none" font-family="Arial" font-size="13px" font-style="normal" font-weight="bold" text-decoration="none" x="173.2021484375" y="211.5">NpcBrain</text></g></g><g transform="translate(-38,-150) scale(1,1)"><g><path fill="none" stroke="none"/><text fill="#000000" stroke="none" font-family="Arial" font-size="13px" font-style="normal" font-weight="normal" text-decoration="none" x="85" y="234.5">-Behaviour</text></g></g><g transform="translate(-38,-150) scale(1,1)"><g><path fill="none" stroke="none"/><text fill="#000000" stroke="none" font-family="Arial" font-size="13px" font-style="normal" font-weight="normal" text-decoration="none" x="85" y="249.5">+BehaviourType</text></g></g><g transform="translate(-38,-150) scale(1,1)"><g><path fill="none" stroke="none"/><text fill="#000000" stroke="none" font-family="Arial" font-size="13px" font-style="normal" font-weight="normal" text-decoration="none" x="85" y="272.5">+NpcBrain(BehaviourType)</text></g></g><g transform="translate(-38,-150) scale(1,1)"><g><path fill="none" stroke="none"/><text fill="#000000" stroke="none" font-family="Arial" font-size="13px" font-style="normal" font-weight="normal" text-decoration="none" x="85" y="287.5">+GetAttacked(): void</text></g></g><g transform="translate(-38,-150) scale(1,1)"><g><path fill="none" stroke="none"/><text fill="#000000" stroke="none" font-family="Arial" font-size="13px" font-style="normal" font-weight="normal" text-decoration="none" x="85" y="302.5">+Attack(Entity): void</text></g></g><g transform="translate(-38,-150) scale(1,1)"><g><path fill="none" stroke="none"/><text fill="#000000" stroke="none" font-family="Arial" font-size="13px" font-style="normal" font-weight="normal" text-decoration="none" x="85" y="317.5">+SwitchBehaviour(BehaviourType): void</text></g></g><g transform="translate(-38,-150) scale(1,1)"><path fill="none" stroke="#000000" d="M 392 256 L 320 256" stroke-miterlimit="10"/></g><g transform="translate(-38,-150) scale(1,1)"><path fill="#FFFFFF" stroke="none" d="M 330.16267485762415 251.790482243984 L 320 256 L 330.16267485762415 260.209517756016 L 342 256"/></g><g transform="translate(-38,-150) scale(1,1)"><path fill="none" stroke="#000000" d="M 330.16267485762415 251.790482243984 L 320 256 L 330.16267485762415 260.209517756016 L 342 256 L 330.16267485762415 251.790482243984" stroke-miterlimit="10"/></g><g transform="translate(-38,-150) scale(1,1)"><rect fill="#C0C0C0" stroke="none" x="95" y="399" width="101.94873046875" height="100" opacity="0.2"/></g><g transform="translate(-38,-150) scale(1,1)"><rect fill="#ffffff" stroke="none" x="88" y="392" width="101.94873046875" height="100"/></g><g transform="translate(-38,-150) scale(1,1)"><path fill="none" stroke="#000000" d="M 88 392 L 189.94873046875 392 L 189.94873046875 492 L 88 492 L 88 392 Z Z" stroke-miterlimit="10"/></g><g transform="translate(-38,-150) scale(1,1)"><path fill="none" stroke="#000000" d="M 88 483 L 189.94873046875 483" stroke-miterlimit="10"/></g><g transform="translate(-38,-150) scale(1,1)"><path fill="none" stroke="#000000" d="M 88 430 L 189.94873046875 430" stroke-miterlimit="10"/></g><g transform="translate(-38,-150) scale(1,1)"><g><path fill="none" stroke="none"/><text fill="#000000" stroke="none" font-family="Arial" font-size="13px" font-style="normal" font-weight="normal" text-decoration="none" x="95.6103515625" y="409.5">«enumeration»</text></g></g><g transform="translate(-38,-150) scale(1,1)"><g><path fill="none" stroke="none"/><text fill="#000000" stroke="none" font-family="Arial" font-size="13px" font-style="normal" font-weight="bold" text-decoration="none" x="95.613525390625" y="424.5">BehaviourType</text></g></g><g transform="translate(-38,-150) scale(1,1)"><g><path fill="none" stroke="none"/><text fill="#000000" stroke="none" font-family="Arial" font-size="13px" font-style="normal" font-weight="normal" text-decoration="none" x="93" y="447.5">NEUTRAL</text></g></g><g transform="translate(-38,-150) scale(1,1)"><g><path fill="none" stroke="none"/><text fill="#000000" stroke="none" font-family="Arial" font-size="13px" font-style="normal" font-weight="normal" text-decoration="none" x="93" y="462.5">AGGRESSIVE</text></g></g><g transform="translate(-38,-150) scale(1,1)"><g><path fill="none" stroke="none"/><text fill="#000000" stroke="none" font-family="Arial" font-size="13px" font-style="normal" font-weight="normal" text-decoration="none" x="93" y="477.5">AFRAID</text></g></g><g transform="translate(-38,-150) scale(1,1)"><path fill="none" stroke="#000000" d="M 136 392 L 136 322" stroke-miterlimit="10"/></g><g transform="translate(-38,-150) scale(1,1)"><path fill="#FFFFFF" stroke="none" d="M 140.209517756016 332.16267485762415 L 136 322 L 131.790482243984 332.16267485762415 L 136 344"/></g><g transform="translate(-38,-150) scale(1,1)"><path fill="none" stroke="#000000" d="M 140.209517756016 332.16267485762415 L 136 322 L 131.790482243984 332.16267485762415 L 136 344 L 140.209517756016 332.16267485762415" stroke-miterlimit="10"/></g></g></svg>