<svg version="1.1" xmlns="http://www.w3.org/2000/svg" xmlns:xlink="http://www.w3.org/1999/xlink" width="474.130859375" height="224"><defs/><g><g transform="translate(-182,-190) scale(1,1)"><rect fill="#C0C0C0" stroke="none" x="351" y="207" width="168" height="120" opacity="0.2"/></g><g transform="translate(-182,-190) scale(1,1)"><rect fill="#ffffff" stroke="none" x="344" y="200" width="168" height="120"/></g><g transform="translate(-182,-190) scale(1,1)"><path fill="none" stroke="#000000" d="M 344 200 L 512 200 L 512 320 L 344 320 L 344 200 Z Z" stroke-miterlimit="10"/></g><g transform="translate(-182,-190) scale(1,1)"><path fill="none" stroke="#000000" d="M 344 225 L 512 225" stroke-miterlimit="10"/></g><g transform="translate(-182,-190) scale(1,1)"><path fill="none" stroke="#000000" d="M 344 235 L 512 235" stroke-miterlimit="10"/></g><g transform="translate(-182,-190) scale(1,1)"><g><path fill="none" stroke="none"/><text fill="#000000" stroke="none" font-family="Arial" font-size="13px" font-style="normal" font-weight="bold" text-decoration="none" x="398.73095703125" y="219.5">Behaviour</text></g></g><g transform="translate(-182,-190) scale(1,1)"><g><path fill="none" stroke="none"/><text fill="#000000" stroke="none" font-family="Arial" font-size="13px" font-style="normal" font-weight="normal" text-decoration="none" x="349" y="252.5">+Move(): void</text></g></g><g transform="translate(-182,-190) scale(1,1)"><g><path fill="none" stroke="none"/><text fill="#000000" stroke="none" font-family="Arial" font-size="13px" font-style="normal" font-weight="normal" text-decoration="none" x="349" y="267.5">+Attack(Entity): void</text></g></g><g transform="translate(-182,-190) scale(1,1)"><g><path fill="none" stroke="none"/><text fill="#000000" stroke="none" font-family="Arial" font-size="13px" font-style="normal" font-weight="normal" text-decoration="none" x="349" y="282.5">+Junp(): void</text></g></g><g transform="translate(-182,-190) scale(1,1)"><g><path fill="none" stroke="none"/><text fill="#000000" stroke="none" font-family="Arial" font-size="13px" font-style="normal" font-weight="normal" text-decoration="none" x="349" y="297.5">+Crouch(): void</text></g></g><g transform="translate(-182,-190) scale(1,1)"><g><path fill="none" stroke="none"/><text fill="#000000" stroke="none" font-family="Arial" font-size="13px" font-style="normal" font-weight="normal" text-decoration="none" x="349" y="312.5">+Dodge(): void</text></g></g><g transform="translate(-182,-190) scale(1,1)"><rect fill="#C0C0C0" stroke="none" x="199" y="367" width="142.66259765625" height="44" opacity="0.2"/></g><g transform="translate(-182,-190) scale(1,1)"><rect fill="#ffffff" stroke="none" x="192" y="360" width="142.66259765625" height="44"/></g><g transform="translate(-182,-190) scale(1,1)"><path fill="none" stroke="#000000" d="M 192 360 L 334.66259765625 360 L 334.66259765625 404 L 192 404 L 192 360 Z Z" stroke-miterlimit="10"/></g><g transform="translate(-182,-190) scale(1,1)"><path fill="none" stroke="#000000" d="M 192 385 L 334.66259765625 385" stroke-miterlimit="10"/></g><g transform="translate(-182,-190) scale(1,1)"><path fill="none" stroke="#000000" d="M 192 395 L 334.66259765625 395" stroke-miterlimit="10"/></g><g transform="translate(-182,-190) scale(1,1)"><g><path fill="none" stroke="none"/><text fill="#000000" stroke="none" font-family="Arial" font-size="13px" font-style="normal" font-weight="bold" text-decoration="none" x="201.908203125" y="379.5">AggressiveBehaviour</text></g></g><g transform="translate(-182,-190) scale(1,1)"><rect fill="#C0C0C0" stroke="none" x="383" y="367" width="117.36083984375" height="44" opacity="0.2"/></g><g transform="translate(-182,-190) scale(1,1)"><rect fill="#ffffff" stroke="none" x="376" y="360" width="117.36083984375" height="44"/></g><g transform="translate(-182,-190) scale(1,1)"><path fill="none" stroke="#000000" d="M 376 360 L 493.36083984375 360 L 493.36083984375 404 L 376 404 L 376 360 Z Z" stroke-miterlimit="10"/></g><g transform="translate(-182,-190) scale(1,1)"><path fill="none" stroke="#000000" d="M 376 385 L 493.36083984375 385" stroke-miterlimit="10"/></g><g transform="translate(-182,-190) scale(1,1)"><path fill="none" stroke="#000000" d="M 376 395 L 493.36083984375 395" stroke-miterlimit="10"/></g><g transform="translate(-182,-190) scale(1,1)"><g><path fill="none" stroke="none"/><text fill="#000000" stroke="none" font-family="Arial" font-size="13px" font-style="normal" font-weight="bold" text-decoration="none" x="384.457763671875" y="379.5">NeutralBehaviour</text></g></g><g transform="translate(-182,-190) scale(1,1)"><rect fill="#C0C0C0" stroke="none" x="543" y="367" width="110.130859375" height="44" opacity="0.2"/></g><g transform="translate(-182,-190) scale(1,1)"><rect fill="#ffffff" stroke="none" x="536" y="360" width="110.130859375" height="44"/></g><g transform="translate(-182,-190) scale(1,1)"><path fill="none" stroke="#000000" d="M 536 360 L 646.130859375 360 L 646.130859375 404 L 536 404 L 536 360 Z Z" stroke-miterlimit="10"/></g><g transform="translate(-182,-190) scale(1,1)"><path fill="none" stroke="#000000" d="M 536 385 L 646.130859375 385" stroke-miterlimit="10"/></g><g transform="translate(-182,-190) scale(1,1)"><path fill="none" stroke="#000000" d="M 536 395 L 646.130859375 395" stroke-miterlimit="10"/></g><g transform="translate(-182,-190) scale(1,1)"><g><path fill="none" stroke="none"/><text fill="#000000" stroke="none" font-family="Arial" font-size="13px" font-style="normal" font-weight="bold" text-decoration="none" x="544.81640625" y="379.5">AfraidBehaviour</text></g></g><g transform="translate(-182,-190) scale(1,1)"><path fill="none" stroke="#000000" d="M 294 359 L 346 321" stroke-miterlimit="10"/></g><g transform="translate(-182,-190) scale(1,1)"><path fill="#FFFFFF" stroke="none" d="M 334.5568637014823 339.7897480465691 L 346 321 L 324.62212246476054 326.19483898579193"/></g><g transform="translate(-182,-190) scale(1,1)"><path fill="none" stroke="#000000" d="M 334.5568637014823 339.7897480465691 L 346 321 L 324.62212246476054 326.19483898579193 L 334.5568637014823 339.7897480465691" stroke-miterlimit="10"/></g><g transform="translate(-182,-190) scale(1,1)"><path fill="none" stroke="#000000" d="M 433 359 L 431 321" stroke-miterlimit="10"/></g><g transform="translate(-182,-190) scale(1,1)"><path fill="#FFFFFF" stroke="none" d="M 440.4756756319442 340.8547619305339 L 431 321 L 423.6608776957469 341.73975129559693"/></g><g transform="translate(-182,-190) scale(1,1)"><path fill="none" stroke="#000000" d="M 440.4756756319442 340.8547619305339 L 431 321 L 423.6608776957469 341.73975129559693 L 440.4756756319442 340.8547619305339" stroke-miterlimit="10"/></g><g transform="translate(-182,-190) scale(1,1)"><path fill="none" stroke="#000000" d="M 560 359 L 510 321" stroke-miterlimit="10"/></g><g transform="translate(-182,-190) scale(1,1)"><path fill="#FFFFFF" stroke="none" d="M 531.2764925427128 326.595611233805 L 510 321 L 521.0880575085101 340.00144680512443"/></g><g transform="translate(-182,-190) scale(1,1)"><path fill="none" stroke="#000000" d="M 531.2764925427128 326.595611233805 L 510 321 L 521.0880575085101 340.00144680512443 L 531.2764925427128 326.595611233805" stroke-miterlimit="10"/></g></g></svg>