<svg version="1.1" xmlns="http://www.w3.org/2000/svg" xmlns:xlink="http://www.w3.org/1999/xlink" width="845.2548828125" height="331"><defs/><g><g transform="translate(-326,-262) scale(1,1)"><rect fill="#C0C0C0" stroke="none" x="463" y="503" width="198.71240234375" height="87" opacity="0.2"/></g><g transform="translate(-326,-262) scale(1,1)"><rect fill="#ffffff" stroke="none" x="456" y="496" width="198.71240234375" height="87"/></g><g transform="translate(-326,-262) scale(1,1)"><path fill="none" stroke="#000000" d="M 456 496 L 654.71240234375 496 L 654.71240234375 583 L 456 583 L 456 496 Z Z" stroke-miterlimit="10"/></g><g transform="translate(-326,-262) scale(1,1)"><path fill="none" stroke="#000000" d="M 456 521 L 654.71240234375 521" stroke-miterlimit="10"/></g><g transform="translate(-326,-262) scale(1,1)"><path fill="none" stroke="#000000" d="M 456 531 L 654.71240234375 531" stroke-miterlimit="10"/></g><g transform="translate(-326,-262) scale(1,1)"><g><path fill="none" stroke="none"/><text fill="#000000" stroke="none" font-family="Arial" font-size="13px" font-style="normal" font-weight="bold" text-decoration="none" x="514.883544921875" y="515.5">ConsoleAudio</text></g></g><g transform="translate(-326,-262) scale(1,1)"><g><path fill="none" stroke="none"/><text fill="#000000" stroke="none" font-family="Arial" font-size="13px" font-style="normal" font-weight="normal" text-decoration="none" x="461" y="548.5">+PlaySound(p_sountId: int): void</text></g></g><g transform="translate(-326,-262) scale(1,1)"><g><path fill="none" stroke="none"/><text fill="#000000" stroke="none" font-family="Arial" font-size="13px" font-style="normal" font-weight="normal" text-decoration="none" x="461" y="563.5">+StopSound(p_sountId: int): void</text></g></g><g transform="translate(-326,-262) scale(1,1)"><g><path fill="none" stroke="none"/><text fill="#000000" stroke="none" font-family="Arial" font-size="13px" font-style="normal" font-weight="normal" text-decoration="none" x="461" y="578.5">+StopAllSounds(): void</text></g></g><g transform="translate(-326,-262) scale(1,1)"><rect fill="#C0C0C0" stroke="none" x="695" y="399" width="473.2548828125" height="85" opacity="0.2"/></g><g transform="translate(-326,-262) scale(1,1)"><rect fill="#ffffff" stroke="none" x="688" y="392" width="473.2548828125" height="85"/></g><g transform="translate(-326,-262) scale(1,1)"><path fill="none" stroke="#000000" d="M 688 392 L 1161.2548828125 392 L 1161.2548828125 477 L 688 477 L 688 392 Z Z" stroke-miterlimit="10"/></g><g transform="translate(-326,-262) scale(1,1)"><path fill="none" stroke="#000000" d="M 688 417 L 1161.2548828125 417" stroke-miterlimit="10"/></g><g transform="translate(-326,-262) scale(1,1)"><path fill="none" stroke="#000000" d="M 688 440 L 1161.2548828125 440" stroke-miterlimit="10"/></g><g transform="translate(-326,-262) scale(1,1)"><g><path fill="none" stroke="none"/><text fill="#000000" stroke="none" font-family="Arial" font-size="13px" font-style="normal" font-weight="bold" text-decoration="none" x="902.947021484375" y="411.5">Locator</text></g></g><g transform="translate(-326,-262) scale(1,1)"><g><path fill="none" stroke="none"/><text fill="#000000" stroke="none" font-family="Arial" font-size="13px" font-style="normal" font-weight="normal" text-decoration="none" x="693" y="434.5">-m_services: std::unordered_map&lt;std::string, OptionalService&gt;</text></g></g><g transform="translate(-326,-262) scale(1,1)"><g><path fill="none" stroke="none"/><text fill="#000000" stroke="none" font-family="Arial" font-size="13px" font-style="normal" font-weight="normal" text-decoration="none" x="693" y="457.5">+GetService(p_name: const std::string&amp;): auto</text></g></g><g transform="translate(-326,-262) scale(1,1)"><g><path fill="none" stroke="none"/><text fill="#000000" stroke="none" font-family="Arial" font-size="13px" font-style="normal" font-weight="normal" text-decoration="none" x="693" y="472.5">+Provide(p_name: const std::string&amp;, p_service: std::shared_ptr&lt;IService&gt;): void</text></g></g><g transform="translate(-326,-262) scale(1,1)"><path fill="#C0C0C0" stroke="none" d="M 430.856201171875 290.5 C 430.856201171875 284.1487248 436.004925971875 279 442.356201171875 279 C 448.707476371875 279 453.856201171875 284.1487248 453.856201171875 290.5 C 453.856201171875 296.8512752 448.707476371875 302 442.356201171875 302 C 436.004925971875 302 430.856201171875 296.8512752 430.856201171875 290.5 Z" opacity="0.2"/></g><g transform="translate(-326,-262) scale(1,1)"><path fill="#ffffff" stroke="none" d="M 423.856201171875 283.5 C 423.856201171875 277.1487248 429.004925971875 272 435.356201171875 272 C 441.707476371875 272 446.856201171875 277.1487248 446.856201171875 283.5 C 446.856201171875 289.8512752 441.707476371875 295 435.356201171875 295 C 429.004925971875 295 423.856201171875 289.8512752 423.856201171875 283.5 Z"/></g><g transform="translate(-326,-262) scale(1,1)"><path fill="none" stroke="#000000" d="M 423.856201171875 283.5 C 423.856201171875 277.1487248 429.004925971875 272 435.356201171875 272 C 441.707476371875 272 446.856201171875 277.1487248 446.856201171875 283.5 C 446.856201171875 289.8512752 441.707476371875 295 435.356201171875 295 C 429.004925971875 295 423.856201171875 289.8512752 423.856201171875 283.5 Z" stroke-miterlimit="10"/></g><g transform="translate(-326,-262) scale(1,1)"><path fill="none" stroke="#000000" d="M 336 320 L 534.71240234375 320" stroke-miterlimit="10"/></g><g transform="translate(-326,-262) scale(1,1)"><g><path fill="none" stroke="none"/><text fill="#000000" stroke="none" font-family="Arial" font-size="13px" font-style="normal" font-weight="bold" text-decoration="none" x="416.92578125" y="314.5">IAudio</text></g></g><g transform="translate(-326,-262) scale(1,1)"><g><path fill="none" stroke="none"/><text fill="#000000" stroke="none" font-family="Arial" font-size="13px" font-style="normal" font-weight="normal" text-decoration="none" x="341" y="337.5">+Destructor()</text></g></g><g transform="translate(-326,-262) scale(1,1)"><g><path fill="none" stroke="none"/><text fill="#000000" stroke="none" font-family="Arial" font-size="13px" font-style="italic" font-weight="normal" text-decoration="none" x="341" y="352.5">+PlaySound(p_sountId: int): void</text></g></g><g transform="translate(-326,-262) scale(1,1)"><g><path fill="none" stroke="none"/><text fill="#000000" stroke="none" font-family="Arial" font-size="13px" font-style="italic" font-weight="normal" text-decoration="none" x="341" y="367.5">+StopSound(p_sountId: int): void</text></g></g><g transform="translate(-326,-262) scale(1,1)"><g><path fill="none" stroke="none"/><text fill="#000000" stroke="none" font-family="Arial" font-size="13px" font-style="italic" font-weight="normal" text-decoration="none" x="341" y="382.5">+StopAllSounds(): void</text></g></g><g transform="translate(-326,-262) scale(1,1)"><path fill="#C0C0C0" stroke="none" d="M 590.7099609375 354.5 C 590.7099609375 348.1487248 595.8586857375 343 602.2099609375 343 C 608.5612361375 343 613.7099609375 348.1487248 613.7099609375 354.5 C 613.7099609375 360.8512752 608.5612361375 366 602.2099609375 366 C 595.8586857375 366 590.7099609375 360.8512752 590.7099609375 354.5 Z" opacity="0.2"/></g><g transform="translate(-326,-262) scale(1,1)"><path fill="#ffffff" stroke="none" d="M 583.7099609375 347.5 C 583.7099609375 341.1487248 588.8586857375 336 595.2099609375 336 C 601.5612361375 336 606.7099609375 341.1487248 606.7099609375 347.5 C 606.7099609375 353.8512752 601.5612361375 359 595.2099609375 359 C 588.8586857375 359 583.7099609375 353.8512752 583.7099609375 347.5 Z"/></g><g transform="translate(-326,-262) scale(1,1)"><path fill="none" stroke="#000000" d="M 583.7099609375 347.5 C 583.7099609375 341.1487248 588.8586857375 336 595.2099609375 336 C 601.5612361375 336 606.7099609375 341.1487248 606.7099609375 347.5 C 606.7099609375 353.8512752 601.5612361375 359 595.2099609375 359 C 588.8586857375 359 583.7099609375 353.8512752 583.7099609375 347.5 Z" stroke-miterlimit="10"/></g><g transform="translate(-326,-262) scale(1,1)"><g><path fill="none" stroke="none"/><text fill="#000000" stroke="none" font-family="Arial" font-size="13px" font-style="normal" font-weight="bold" text-decoration="none" x="571.72998046875" y="378.5">IService</text></g></g><g transform="translate(-326,-262) scale(1,1)"><path fill="none" stroke="#000000" d="M 598 496 L 598 384" stroke-miterlimit="10"/></g><g transform="translate(-326,-262) scale(1,1)"><path fill="#FFFFFF" stroke="none" d="M 606.419035512032 404.3253497152483 L 598 384 L 589.580964487968 404.3253497152483"/></g><g transform="translate(-326,-262) scale(1,1)"><path fill="none" stroke="#000000" d="M 606.419035512032 404.3253497152483 L 598 384 L 589.580964487968 404.3253497152483 L 606.419035512032 404.3253497152483" stroke-miterlimit="10"/></g><g transform="translate(-326,-262) scale(1,1)"><path fill="none" stroke="#000000" d="M 456 512 L 432 512 L 432 388" stroke-miterlimit="10"/></g><g transform="translate(-326,-262) scale(1,1)"><path fill="#FFFFFF" stroke="none" d="M 440.419035512032 408.3253497152483 L 432 388 L 423.580964487968 408.3253497152483"/></g><g transform="translate(-326,-262) scale(1,1)"><path fill="none" stroke="#000000" d="M 440.419035512032 408.3253497152483 L 432 388 L 423.580964487968 408.3253497152483 L 440.419035512032 408.3253497152483" stroke-miterlimit="10"/></g><g transform="translate(-326,-262) scale(1,1)"><path fill="#ffffff" stroke="none" d="M 720 320 L 1109 320 L 1119 330 L 1119 353 L 720 353 L 720 320"/></g><g transform="translate(-326,-262) scale(1,1)"><path fill="none" stroke="#000000" d="M 720 320 L 1109 320 L 1119 330 L 1119 353 L 720 353 L 720 320 L 720 320" stroke-miterlimit="10"/></g><g transform="translate(-326,-262) scale(1,1)"><path fill="none" stroke="#000000" d="M 1109 320 L 1109 330 L 1119 330 L 1109 320" stroke-miterlimit="10"/></g><g transform="translate(-326,-262) scale(1,1)"><g><path fill="none" stroke="none"/><text fill="#000000" stroke="none" font-family="Arial" font-size="13px" font-style="normal" font-weight="normal" text-decoration="none" x="725" y="338">typedef std::optional&lt;std::shared_ptr&lt;IService&gt;&gt; OptionalService</text></g></g><g transform="translate(-326,-262) scale(1,1)"><path fill="none" stroke="#000000" d="M 921 354 L 921 392" stroke-miterlimit="10" stroke-dasharray="3"/></g><g transform="translate(-326,-262) scale(1,1)"><path fill="none" stroke="#000000" d="M 655 514 L 944 514 L 944 477" stroke-miterlimit="10"/></g><g transform="translate(-326,-262) scale(1,1)"><path fill="#FFFFFF" stroke="none" d="M 948.209517756016 487.16267485762415 L 944 477 L 939.790482243984 487.16267485762415 L 944 499"/></g><g transform="translate(-326,-262) scale(1,1)"><path fill="none" stroke="#000000" d="M 948.209517756016 487.16267485762415 L 944 477 L 939.790482243984 487.16267485762415 L 944 499 L 948.209517756016 487.16267485762415" stroke-miterlimit="10"/></g></g></svg>