<svg version="1.1" xmlns="http://www.w3.org/2000/svg" xmlns:xlink="http://www.w3.org/1999/xlink" width="1112.455078125" height="432"><defs/><g><g transform="translate(-6,-54) scale(1,1)"><rect fill="#C0C0C0" stroke="none" x="487" y="223" width="137.2607421875" height="160" opacity="0.2"/></g><g transform="translate(-6,-54) scale(1,1)"><rect fill="#ffffff" stroke="none" x="480" y="216" width="137.2607421875" height="160"/></g><g transform="translate(-6,-54) scale(1,1)"><path fill="none" stroke="#000000" d="M 480 216 L 617.2607421875 216 L 617.2607421875 376 L 480 376 L 480 216 Z Z" stroke-miterlimit="10"/></g><g transform="translate(-6,-54) scale(1,1)"><path fill="none" stroke="#000000" d="M 480 241 L 617.2607421875 241" stroke-miterlimit="10"/></g><g transform="translate(-6,-54) scale(1,1)"><path fill="none" stroke="#000000" d="M 480 264 L 617.2607421875 264" stroke-miterlimit="10"/></g><g transform="translate(-6,-54) scale(1,1)"><g><path fill="none" stroke="none"/><text fill="#000000" stroke="none" font-family="Arial" font-size="13px" font-style="normal" font-weight="bold" text-decoration="none" x="530.206298828125" y="235.5">Player</text></g></g><g transform="translate(-6,-54) scale(1,1)"><g><path fill="none" stroke="none"/><text fill="#000000" stroke="none" font-family="Arial" font-size="13px" font-style="normal" font-weight="normal" text-decoration="none" x="485" y="258.5">-m_state: StatePlayer</text></g></g><g transform="translate(-6,-54) scale(1,1)"><g><path fill="none" stroke="none"/><text fill="#000000" stroke="none" font-family="Arial" font-size="13px" font-style="normal" font-weight="normal" text-decoration="none" x="485" y="281.5">+Constructor()</text></g></g><g transform="translate(-6,-54) scale(1,1)"><g><path fill="none" stroke="none"/><text fill="#000000" stroke="none" font-family="Arial" font-size="13px" font-style="normal" font-weight="normal" text-decoration="none" x="485" y="296.5">+Idle(): void</text></g></g><g transform="translate(-6,-54) scale(1,1)"><g><path fill="none" stroke="none"/><text fill="#000000" stroke="none" font-family="Arial" font-size="13px" font-style="normal" font-weight="normal" text-decoration="none" x="485" y="311.5">+IsIdle(): bool</text></g></g><g transform="translate(-6,-54) scale(1,1)"><g><path fill="none" stroke="none"/><text fill="#000000" stroke="none" font-family="Arial" font-size="13px" font-style="normal" font-weight="normal" text-decoration="none" x="485" y="326.5">+DoJump(): void</text></g></g><g transform="translate(-6,-54) scale(1,1)"><g><path fill="none" stroke="none"/><text fill="#000000" stroke="none" font-family="Arial" font-size="13px" font-style="normal" font-weight="normal" text-decoration="none" x="485" y="341.5">+IsJumping(): bool</text></g></g><g transform="translate(-6,-54) scale(1,1)"><g><path fill="none" stroke="none"/><text fill="#000000" stroke="none" font-family="Arial" font-size="13px" font-style="normal" font-weight="normal" text-decoration="none" x="485" y="356.5">+DoAttack(): void</text></g></g><g transform="translate(-6,-54) scale(1,1)"><g><path fill="none" stroke="none"/><text fill="#000000" stroke="none" font-family="Arial" font-size="13px" font-style="normal" font-weight="normal" text-decoration="none" x="485" y="371.5">+IsAttacking(): bool</text></g></g><g transform="translate(-6,-54) scale(1,1)"><rect fill="#C0C0C0" stroke="none" x="719" y="247" width="72" height="44" opacity="0.2"/></g><g transform="translate(-6,-54) scale(1,1)"><rect fill="#ffffff" stroke="none" x="712" y="240" width="72" height="44"/></g><g transform="translate(-6,-54) scale(1,1)"><path fill="none" stroke="#000000" d="M 712 240 L 784 240 L 784 284 L 712 284 L 712 240 Z Z" stroke-miterlimit="10"/></g><g transform="translate(-6,-54) scale(1,1)"><path fill="none" stroke="#000000" d="M 712 265 L 784 265" stroke-miterlimit="10"/></g><g transform="translate(-6,-54) scale(1,1)"><path fill="none" stroke="#000000" d="M 712 275 L 784 275" stroke-miterlimit="10"/></g><g transform="translate(-6,-54) scale(1,1)"><g><path fill="none" stroke="none"/><text fill="#000000" stroke="none" font-family="Arial" font-size="13px" font-style="normal" font-weight="bold" text-decoration="none" x="732.82275390625" y="259.5">State</text></g></g><g transform="translate(-6,-54) scale(1,1)"><path fill="none" stroke="#000000" d="M 712 256 L 617 256" stroke-miterlimit="10"/></g><g transform="translate(-6,-54) scale(1,1)"><path fill="#000000" stroke="none" d="M 627.1626748576241 251.790482243984 L 617 256 L 627.1626748576241 260.209517756016 L 639 256"/></g><g transform="translate(-6,-54) scale(1,1)"><path fill="none" stroke="#000000" d="M 627.1626748576241 251.790482243984 L 617 256 L 627.1626748576241 260.209517756016 L 639 256 L 627.1626748576241 251.790482243984" stroke-miterlimit="10"/></g><g transform="translate(-6,-54) scale(1,1)"><rect fill="#C0C0C0" stroke="none" x="639" y="407" width="63.18359375" height="44" opacity="0.2"/></g><g transform="translate(-6,-54) scale(1,1)"><rect fill="#ffffff" stroke="none" x="632" y="400" width="63.18359375" height="44"/></g><g transform="translate(-6,-54) scale(1,1)"><path fill="none" stroke="#000000" d="M 632 400 L 695.18359375 400 L 695.18359375 444 L 632 444 L 632 400 Z Z" stroke-miterlimit="10"/></g><g transform="translate(-6,-54) scale(1,1)"><path fill="none" stroke="#000000" d="M 632 425 L 695.18359375 425" stroke-miterlimit="10"/></g><g transform="translate(-6,-54) scale(1,1)"><path fill="none" stroke="#000000" d="M 632 435 L 695.18359375 435" stroke-miterlimit="10"/></g><g transform="translate(-6,-54) scale(1,1)"><g><path fill="none" stroke="none"/><text fill="#000000" stroke="none" font-family="Arial" font-size="13px" font-style="normal" font-weight="bold" text-decoration="none" x="637.9345703125" y="419.5">IdleState</text></g></g><g transform="translate(-6,-54) scale(1,1)"><rect fill="#C0C0C0" stroke="none" x="711" y="439" width="78.55126953125" height="44" opacity="0.2"/></g><g transform="translate(-6,-54) scale(1,1)"><rect fill="#ffffff" stroke="none" x="704" y="432" width="78.55126953125" height="44"/></g><g transform="translate(-6,-54) scale(1,1)"><path fill="none" stroke="#000000" d="M 704 432 L 782.55126953125 432 L 782.55126953125 476 L 704 476 L 704 432 Z Z" stroke-miterlimit="10"/></g><g transform="translate(-6,-54) scale(1,1)"><path fill="none" stroke="#000000" d="M 704 457 L 782.55126953125 457" stroke-miterlimit="10"/></g><g transform="translate(-6,-54) scale(1,1)"><path fill="none" stroke="#000000" d="M 704 467 L 782.55126953125 467" stroke-miterlimit="10"/></g><g transform="translate(-6,-54) scale(1,1)"><g><path fill="none" stroke="none"/><text fill="#000000" stroke="none" font-family="Arial" font-size="13px" font-style="normal" font-weight="bold" text-decoration="none" x="712.203857421875" y="451.5">JumpState</text></g></g><g transform="translate(-6,-54) scale(1,1)"><path fill="none" stroke="#000000" d="M 695 422 L 722 422 L 722 284" stroke-miterlimit="10"/></g><g transform="translate(-6,-54) scale(1,1)"><path fill="#FFFFFF" stroke="none" d="M 730.419035512032 304.3253497152483 L 722 284 L 713.580964487968 304.3253497152483"/></g><g transform="translate(-6,-54) scale(1,1)"><path fill="none" stroke="#000000" d="M 730.419035512032 304.3253497152483 L 722 284 L 713.580964487968 304.3253497152483 L 730.419035512032 304.3253497152483" stroke-miterlimit="10"/></g><g transform="translate(-6,-54) scale(1,1)"><path fill="none" stroke="#000000" d="M 747 432 L 747 284" stroke-miterlimit="10"/></g><g transform="translate(-6,-54) scale(1,1)"><path fill="#FFFFFF" stroke="none" d="M 755.419035512032 304.3253497152483 L 747 284 L 738.580964487968 304.3253497152483"/></g><g transform="translate(-6,-54) scale(1,1)"><path fill="none" stroke="#000000" d="M 755.419035512032 304.3253497152483 L 747 284 L 738.580964487968 304.3253497152483 L 755.419035512032 304.3253497152483" stroke-miterlimit="10"/></g><g transform="translate(-6,-54) scale(1,1)"><rect fill="#C0C0C0" stroke="none" x="799" y="71" width="316.455078125" height="87" opacity="0.2"/></g><g transform="translate(-6,-54) scale(1,1)"><rect fill="#ffffff" stroke="none" x="792" y="64" width="316.455078125" height="87"/></g><g transform="translate(-6,-54) scale(1,1)"><path fill="none" stroke="#000000" d="M 792 64 L 1108.455078125 64 L 1108.455078125 151 L 792 151 L 792 64 Z Z" stroke-miterlimit="10"/></g><g transform="translate(-6,-54) scale(1,1)"><path fill="none" stroke="#000000" d="M 792 89 L 1108.455078125 89" stroke-miterlimit="10"/></g><g transform="translate(-6,-54) scale(1,1)"><path fill="none" stroke="#000000" d="M 792 99 L 1108.455078125 99" stroke-miterlimit="10"/></g><g transform="translate(-6,-54) scale(1,1)"><g><path fill="none" stroke="none"/><text fill="#000000" stroke="none" font-family="Arial" font-size="13px" font-style="normal" font-weight="bold" text-decoration="none" x="915.5439453125" y="83.5">AttackEvent</text></g></g><g transform="translate(-6,-54) scale(1,1)"><g><path fill="none" stroke="none"/><text fill="#000000" stroke="none" font-family="Arial" font-size="13px" font-style="normal" font-weight="normal" text-decoration="none" x="797" y="116.5">+operator()(p_state: const IdleState&amp;): StatePlayer</text></g></g><g transform="translate(-6,-54) scale(1,1)"><g><path fill="none" stroke="none"/><text fill="#000000" stroke="none" font-family="Arial" font-size="13px" font-style="normal" font-weight="normal" text-decoration="none" x="797" y="131.5">+operator()(p_state: const JumpState&amp;): StatePlayer</text></g></g><g transform="translate(-6,-54) scale(1,1)"><g><path fill="none" stroke="none"/><text fill="#000000" stroke="none" font-family="Arial" font-size="13px" font-style="normal" font-weight="normal" text-decoration="none" x="797" y="146.5">+operator()(p_state: const AttackState&amp;): StatePlayer</text></g></g><g transform="translate(-6,-54) scale(1,1)"><rect fill="#C0C0C0" stroke="none" x="55" y="79" width="316.455078125" height="87" opacity="0.2"/></g><g transform="translate(-6,-54) scale(1,1)"><rect fill="#ffffff" stroke="none" x="48" y="72" width="316.455078125" height="87"/></g><g transform="translate(-6,-54) scale(1,1)"><path fill="none" stroke="#000000" d="M 48 72 L 364.455078125 72 L 364.455078125 159 L 48 159 L 48 72 Z Z" stroke-miterlimit="10"/></g><g transform="translate(-6,-54) scale(1,1)"><path fill="none" stroke="#000000" d="M 48 97 L 364.455078125 97" stroke-miterlimit="10"/></g><g transform="translate(-6,-54) scale(1,1)"><path fill="none" stroke="#000000" d="M 48 107 L 364.455078125 107" stroke-miterlimit="10"/></g><g transform="translate(-6,-54) scale(1,1)"><g><path fill="none" stroke="none"/><text fill="#000000" stroke="none" font-family="Arial" font-size="13px" font-style="normal" font-weight="bold" text-decoration="none" x="173.711669921875" y="91.5">JumpEvent</text></g></g><g transform="translate(-6,-54) scale(1,1)"><g><path fill="none" stroke="none"/><text fill="#000000" stroke="none" font-family="Arial" font-size="13px" font-style="normal" font-weight="normal" text-decoration="none" x="53" y="124.5">+operator()(p_state: const IdleState&amp;): StatePlayer</text></g></g><g transform="translate(-6,-54) scale(1,1)"><g><path fill="none" stroke="none"/><text fill="#000000" stroke="none" font-family="Arial" font-size="13px" font-style="normal" font-weight="normal" text-decoration="none" x="53" y="139.5">+operator()(p_state: const JumpState&amp;): StatePlayer</text></g></g><g transform="translate(-6,-54) scale(1,1)"><g><path fill="none" stroke="none"/><text fill="#000000" stroke="none" font-family="Arial" font-size="13px" font-style="normal" font-weight="normal" text-decoration="none" x="53" y="154.5">+operator()(p_state: const AttackState&amp;): StatePlayer</text></g></g><g transform="translate(-6,-54) scale(1,1)"><rect fill="#C0C0C0" stroke="none" x="407" y="79" width="316.455078125" height="87" opacity="0.2"/></g><g transform="translate(-6,-54) scale(1,1)"><rect fill="#ffffff" stroke="none" x="400" y="72" width="316.455078125" height="87"/></g><g transform="translate(-6,-54) scale(1,1)"><path fill="none" stroke="#000000" d="M 400 72 L 716.455078125 72 L 716.455078125 159 L 400 159 L 400 72 Z Z" stroke-miterlimit="10"/></g><g transform="translate(-6,-54) scale(1,1)"><path fill="none" stroke="#000000" d="M 400 97 L 716.455078125 97" stroke-miterlimit="10"/></g><g transform="translate(-6,-54) scale(1,1)"><path fill="none" stroke="#000000" d="M 400 107 L 716.455078125 107" stroke-miterlimit="10"/></g><g transform="translate(-6,-54) scale(1,1)"><g><path fill="none" stroke="none"/><text fill="#000000" stroke="none" font-family="Arial" font-size="13px" font-style="normal" font-weight="bold" text-decoration="none" x="531.126220703125" y="91.5">IdleEvent</text></g></g><g transform="translate(-6,-54) scale(1,1)"><g><path fill="none" stroke="none"/><text fill="#000000" stroke="none" font-family="Arial" font-size="13px" font-style="normal" font-weight="normal" text-decoration="none" x="405" y="124.5">+operator()(p_state: const IdleState&amp;): StatePlayer</text></g></g><g transform="translate(-6,-54) scale(1,1)"><g><path fill="none" stroke="none"/><text fill="#000000" stroke="none" font-family="Arial" font-size="13px" font-style="normal" font-weight="normal" text-decoration="none" x="405" y="139.5">+operator()(p_state: const JumpState&amp;): StatePlayer</text></g></g><g transform="translate(-6,-54) scale(1,1)"><g><path fill="none" stroke="none"/><text fill="#000000" stroke="none" font-family="Arial" font-size="13px" font-style="normal" font-weight="normal" text-decoration="none" x="405" y="154.5">+operator()(p_state: const AttackState&amp;): StatePlayer</text></g></g><g transform="translate(-6,-54) scale(1,1)"><rect fill="#C0C0C0" stroke="none" x="799" y="407" width="80.525390625" height="44" opacity="0.2"/></g><g transform="translate(-6,-54) scale(1,1)"><rect fill="#ffffff" stroke="none" x="792" y="400" width="80.525390625" height="44"/></g><g transform="translate(-6,-54) scale(1,1)"><path fill="none" stroke="#000000" d="M 792 400 L 872.525390625 400 L 872.525390625 444 L 792 444 L 792 400 Z Z" stroke-miterlimit="10"/></g><g transform="translate(-6,-54) scale(1,1)"><path fill="none" stroke="#000000" d="M 792 425 L 872.525390625 425" stroke-miterlimit="10"/></g><g transform="translate(-6,-54) scale(1,1)"><path fill="none" stroke="#000000" d="M 792 435 L 872.525390625 435" stroke-miterlimit="10"/></g><g transform="translate(-6,-54) scale(1,1)"><g><path fill="none" stroke="none"/><text fill="#000000" stroke="none" font-family="Arial" font-size="13px" font-style="normal" font-weight="bold" text-decoration="none" x="799.023193359375" y="419.5">AttackState</text></g></g><g transform="translate(-6,-54) scale(1,1)"><path fill="none" stroke="#000000" d="M 792 422 L 768 422 L 768 284" stroke-miterlimit="10"/></g><g transform="translate(-6,-54) scale(1,1)"><path fill="#FFFFFF" stroke="none" d="M 776.419035512032 304.3253497152483 L 768 284 L 759.580964487968 304.3253497152483"/></g><g transform="translate(-6,-54) scale(1,1)"><path fill="none" stroke="#000000" d="M 776.419035512032 304.3253497152483 L 768 284 L 759.580964487968 304.3253497152483 L 776.419035512032 304.3253497152483" stroke-miterlimit="10"/></g><g transform="translate(-6,-54) scale(1,1)"><path fill="none" stroke="#000000" d="M 291 159 L 291 184 L 504 184 L 504 216" stroke-miterlimit="10"/></g><g transform="translate(-6,-54) scale(1,1)"><path fill="none" stroke="#000000" d="M 552 159 L 552 216" stroke-miterlimit="10"/></g><g transform="translate(-6,-54) scale(1,1)"><path fill="none" stroke="#000000" d="M 854 151 L 854 184 L 600 184 L 600 216" stroke-miterlimit="10"/></g><g transform="translate(-6,-54) scale(1,1)"><path fill="#ffffd8" stroke="none" d="M 16 240 L 453 240 L 463 250 L 463 271 L 16 271 L 16 240"/></g><g transform="translate(-6,-54) scale(1,1)"><path fill="none" stroke="#000000" d="M 16 240 L 453 240 L 463 250 L 463 271 L 16 271 L 16 240 L 16 240" stroke-miterlimit="10"/></g><g transform="translate(-6,-54) scale(1,1)"><path fill="none" stroke="#000000" d="M 453 240 L 453 250 L 463 250 L 453 240" stroke-miterlimit="10"/></g><g transform="translate(-6,-54) scale(1,1)"><g><path fill="none" stroke="none"/><text fill="#000000" stroke="none" font-family="Arial" font-size="13px" font-style="normal" font-weight="normal" text-decoration="none" x="21" y="258">using StatePlayer = std::variant&lt;IdleState, JumpState, AttackState&gt;;</text></g></g><g transform="translate(-6,-54) scale(1,1)"><path fill="none" stroke="#000000" d="M 236 239 L 217 160" stroke-miterlimit="10" stroke-dasharray="3"/></g><g transform="translate(-6,-54) scale(1,1)"><path fill="none" stroke="#000000" d="M 278 239 L 457 160" stroke-miterlimit="10" stroke-dasharray="3"/></g><g transform="translate(-6,-54) scale(1,1)"><path fill="none" stroke="#000000" d="M 321 239 L 791 140" stroke-miterlimit="10" stroke-dasharray="3"/></g><g transform="translate(-6,-54) scale(1,1)"><path fill="none" stroke="#000000" d="M 371 273 L 479 287" stroke-miterlimit="10" stroke-dasharray="3"/></g></g></svg>