<svg version="1.1" xmlns="http://www.w3.org/2000/svg" xmlns:xlink="http://www.w3.org/1999/xlink" width="436.21484375" height="483"><defs/><g><g transform="translate(-150,-70) scale(1,1)"><rect fill="#C0C0C0" stroke="none" x="167" y="143" width="416.21484375" height="130" opacity="0.2"/></g><g transform="translate(-150,-70) scale(1,1)"><rect fill="#ffffff" stroke="none" x="160" y="136" width="416.21484375" height="130"/></g><g transform="translate(-150,-70) scale(1,1)"><path fill="none" stroke="#000000" d="M 160 136 L 576.21484375 136 L 576.21484375 266 L 160 266 L 160 136 Z Z" stroke-miterlimit="10"/></g><g transform="translate(-150,-70) scale(1,1)"><path fill="none" stroke="#000000" d="M 160 161 L 576.21484375 161" stroke-miterlimit="10"/></g><g transform="translate(-150,-70) scale(1,1)"><path fill="none" stroke="#000000" d="M 160 184 L 576.21484375 184" stroke-miterlimit="10"/></g><g transform="translate(-150,-70) scale(1,1)"><g><path fill="none" stroke="none"/><text fill="#000000" stroke="none" font-family="Arial" font-size="13px" font-style="normal" font-weight="bold" text-decoration="none" x="349.683349609375" y="155.5">Player</text></g></g><g transform="translate(-150,-70) scale(1,1)"><g><path fill="none" stroke="none"/><text fill="#000000" stroke="none" font-family="Arial" font-size="13px" font-style="normal" font-weight="normal" text-decoration="none" x="165" y="178.5">+m_components: std::unordered_map&lt;std::string, UniqueComponent&gt;</text></g></g><g transform="translate(-150,-70) scale(1,1)"><g><path fill="none" stroke="none"/><text fill="#000000" stroke="none" font-family="Arial" font-size="13px" font-style="normal" font-weight="normal" text-decoration="none" x="165" y="201.5">+AddComponent&lt;T&gt;(p_name: const std::string&amp;)</text></g></g><g transform="translate(-150,-70) scale(1,1)"><g><path fill="none" stroke="none"/><text fill="#000000" stroke="none" font-family="Arial" font-size="13px" font-style="normal" font-weight="normal" text-decoration="none" x="165" y="216.5">+RemoveComponent(p_name: const std::string&amp;)</text></g></g><g transform="translate(-150,-70) scale(1,1)"><g><path fill="none" stroke="none"/><text fill="#000000" stroke="none" font-family="Arial" font-size="13px" font-style="normal" font-weight="normal" text-decoration="none" x="165" y="231.5">+ComponentExists(p_name: const std::string&amp;)</text></g></g><g transform="translate(-150,-70) scale(1,1)"><g><path fill="none" stroke="none"/><text fill="#000000" stroke="none" font-family="Arial" font-size="13px" font-style="normal" font-weight="normal" text-decoration="none" x="165" y="246.5">+Update(): const</text></g></g><g transform="translate(-150,-70) scale(1,1)"><g><path fill="none" stroke="none"/><text fill="#000000" stroke="none" font-family="Arial" font-size="13px" font-style="normal" font-weight="normal" text-decoration="none" x="165" y="261.5">+Operation1()</text></g></g><g transform="translate(-150,-70) scale(1,1)"><path fill="#C0C0C0" stroke="none" d="M 368.285400390625 330.5 C 368.285400390625 324.1487248 373.434125190625 319 379.785400390625 319 C 386.136675590625 319 391.285400390625 324.1487248 391.285400390625 330.5 C 391.285400390625 336.8512752 386.136675590625 342 379.785400390625 342 C 373.434125190625 342 368.285400390625 336.8512752 368.285400390625 330.5 Z" opacity="0.2"/></g><g transform="translate(-150,-70) scale(1,1)"><path fill="#ffffff" stroke="none" d="M 361.285400390625 323.5 C 361.285400390625 317.1487248 366.434125190625 312 372.785400390625 312 C 379.136675590625 312 384.285400390625 317.1487248 384.285400390625 323.5 C 384.285400390625 329.8512752 379.136675590625 335 372.785400390625 335 C 366.434125190625 335 361.285400390625 329.8512752 361.285400390625 323.5 Z"/></g><g transform="translate(-150,-70) scale(1,1)"><path fill="none" stroke="#000000" d="M 361.285400390625 323.5 C 361.285400390625 317.1487248 366.434125190625 312 372.785400390625 312 C 379.136675590625 312 384.285400390625 317.1487248 384.285400390625 323.5 C 384.285400390625 329.8512752 379.136675590625 335 372.785400390625 335 C 366.434125190625 335 361.285400390625 329.8512752 361.285400390625 323.5 Z" stroke-miterlimit="10"/></g><g transform="translate(-150,-70) scale(1,1)"><path fill="none" stroke="#000000" d="M 328 360 L 417.57080078125 360" stroke-miterlimit="10"/></g><g transform="translate(-150,-70) scale(1,1)"><g><path fill="none" stroke="none"/><text fill="#000000" stroke="none" font-family="Arial" font-size="13px" font-style="normal" font-weight="bold" text-decoration="none" x="337.375" y="354.5">IComponent</text></g></g><g transform="translate(-150,-70) scale(1,1)"><g><path fill="none" stroke="none"/><text fill="#000000" stroke="none" font-family="Arial" font-size="13px" font-style="italic" font-weight="normal" text-decoration="none" x="333" y="377.5">+Update()</text></g></g><g transform="translate(-150,-70) scale(1,1)"><rect fill="#C0C0C0" stroke="none" x="207" y="463" width="141.58984375" height="87" opacity="0.2"/></g><g transform="translate(-150,-70) scale(1,1)"><rect fill="#ffffff" stroke="none" x="200" y="456" width="141.58984375" height="87"/></g><g transform="translate(-150,-70) scale(1,1)"><path fill="none" stroke="#000000" d="M 200 456 L 341.58984375 456 L 341.58984375 543 L 200 543 L 200 456 Z Z" stroke-miterlimit="10"/></g><g transform="translate(-150,-70) scale(1,1)"><path fill="none" stroke="#000000" d="M 200 481 L 341.58984375 481" stroke-miterlimit="10"/></g><g transform="translate(-150,-70) scale(1,1)"><path fill="none" stroke="#000000" d="M 200 491 L 341.58984375 491" stroke-miterlimit="10"/></g><g transform="translate(-150,-70) scale(1,1)"><g><path fill="none" stroke="none"/><text fill="#000000" stroke="none" font-family="Arial" font-size="13px" font-style="normal" font-weight="bold" text-decoration="none" x="212.625" y="475.5">CollisionComponent</text></g></g><g transform="translate(-150,-70) scale(1,1)"><g><path fill="none" stroke="none"/><text fill="#000000" stroke="none" font-family="Arial" font-size="13px" font-style="normal" font-weight="normal" text-decoration="none" x="205" y="508.5">+Constructor()</text></g></g><g transform="translate(-150,-70) scale(1,1)"><g><path fill="none" stroke="none"/><text fill="#000000" stroke="none" font-family="Arial" font-size="13px" font-style="normal" font-weight="normal" text-decoration="none" x="205" y="523.5">+Destructor()</text></g></g><g transform="translate(-150,-70) scale(1,1)"><g><path fill="none" stroke="none"/><text fill="#000000" stroke="none" font-family="Arial" font-size="13px" font-style="normal" font-weight="normal" text-decoration="none" x="205" y="538.5">+Update()</text></g></g><g transform="translate(-150,-70) scale(1,1)"><rect fill="#C0C0C0" stroke="none" x="399" y="463" width="139.7236328125" height="87" opacity="0.2"/></g><g transform="translate(-150,-70) scale(1,1)"><rect fill="#ffffff" stroke="none" x="392" y="456" width="139.7236328125" height="87"/></g><g transform="translate(-150,-70) scale(1,1)"><path fill="none" stroke="#000000" d="M 392 456 L 531.7236328125 456 L 531.7236328125 543 L 392 543 L 392 456 Z Z" stroke-miterlimit="10"/></g><g transform="translate(-150,-70) scale(1,1)"><path fill="none" stroke="#000000" d="M 392 481 L 531.7236328125 481" stroke-miterlimit="10"/></g><g transform="translate(-150,-70) scale(1,1)"><path fill="none" stroke="#000000" d="M 392 491 L 531.7236328125 491" stroke-miterlimit="10"/></g><g transform="translate(-150,-70) scale(1,1)"><g><path fill="none" stroke="none"/><text fill="#000000" stroke="none" font-family="Arial" font-size="13px" font-style="normal" font-weight="bold" text-decoration="none" x="401.52099609375" y="475.5">InventoryComponent</text></g></g><g transform="translate(-150,-70) scale(1,1)"><g><path fill="none" stroke="none"/><text fill="#000000" stroke="none" font-family="Arial" font-size="13px" font-style="normal" font-weight="normal" text-decoration="none" x="397" y="508.5">+Constructor()</text></g></g><g transform="translate(-150,-70) scale(1,1)"><g><path fill="none" stroke="none"/><text fill="#000000" stroke="none" font-family="Arial" font-size="13px" font-style="normal" font-weight="normal" text-decoration="none" x="397" y="523.5">+Destructor()</text></g></g><g transform="translate(-150,-70) scale(1,1)"><g><path fill="none" stroke="none"/><text fill="#000000" stroke="none" font-family="Arial" font-size="13px" font-style="normal" font-weight="normal" text-decoration="none" x="397" y="538.5">+Update()</text></g></g><g transform="translate(-150,-70) scale(1,1)"><path fill="none" stroke="#000000" d="M 328 383 L 272 383 L 272 456" stroke-miterlimit="10"/></g><g transform="translate(-150,-70) scale(1,1)"><path fill="#FFFFFF" stroke="none" d="M 263.580964487968 435.6746502847517 L 272 456 L 280.419035512032 435.6746502847517"/></g><g transform="translate(-150,-70) scale(1,1)"><path fill="none" stroke="#000000" d="M 263.580964487968 435.6746502847517 L 272 456 L 280.419035512032 435.6746502847517 L 263.580964487968 435.6746502847517" stroke-miterlimit="10"/></g><g transform="translate(-150,-70) scale(1,1)"><path fill="none" stroke="#000000" d="M 418 383 L 464 383 L 464 456" stroke-miterlimit="10"/></g><g transform="translate(-150,-70) scale(1,1)"><path fill="#FFFFFF" stroke="none" d="M 455.580964487968 435.6746502847517 L 464 456 L 472.419035512032 435.6746502847517"/></g><g transform="translate(-150,-70) scale(1,1)"><path fill="none" stroke="#000000" d="M 455.580964487968 435.6746502847517 L 464 456 L 472.419035512032 435.6746502847517 L 455.580964487968 435.6746502847517" stroke-miterlimit="10"/></g><g transform="translate(-150,-70) scale(1,1)"><path fill="none" stroke="#000000" d="M 371 311 L 370 267" stroke-miterlimit="10"/></g><g transform="translate(-150,-70) scale(1,1)"><path fill="#FFFFFF" stroke="none" d="M 374.43934126307227 277.06440505693126 L 370 267 L 366.0224792467554 277.2556973754839 L 370.49987091777245 288.99432038198876"/></g><g transform="translate(-150,-70) scale(1,1)"><path fill="none" stroke="#000000" d="M 374.43934126307227 277.06440505693126 L 370 267 L 366.0224792467554 277.2556973754839 L 370.49987091777245 288.99432038198876 L 374.43934126307227 277.06440505693126" stroke-miterlimit="10"/></g><g transform="translate(-150,-70) scale(1,1)"><path fill="#ffffd8" stroke="none" d="M 168 80 L 565 80 L 575 90 L 575 111 L 168 111 L 168 80"/></g><g transform="translate(-150,-70) scale(1,1)"><path fill="none" stroke="#000000" d="M 168 80 L 565 80 L 575 90 L 575 111 L 168 111 L 168 80 L 168 80" stroke-miterlimit="10"/></g><g transform="translate(-150,-70) scale(1,1)"><path fill="none" stroke="#000000" d="M 565 80 L 565 90 L 575 90 L 565 80" stroke-miterlimit="10"/></g><g transform="translate(-150,-70) scale(1,1)"><g><path fill="none" stroke="none"/><text fill="#000000" stroke="none" font-family="Arial" font-size="13px" font-style="normal" font-weight="normal" text-decoration="none" x="173" y="98">typedef std::unique_ptr&lt;IComponent&gt; UniqueComponent</text></g></g><g transform="translate(-150,-70) scale(1,1)"><path fill="none" stroke="#000000" d="M 371 113 L 371 135" stroke-miterlimit="10" stroke-dasharray="3"/></g></g></svg>