<svg version="1.1" xmlns="http://www.w3.org/2000/svg" xmlns:xlink="http://www.w3.org/1999/xlink" width="429" height="334"><defs/><g><g transform="translate(-254,-190) scale(1,1)"><rect fill="#C0C0C0" stroke="none" x="495" y="239" width="156.77978515625" height="70" opacity="0.2"/></g><g transform="translate(-254,-190) scale(1,1)"><rect fill="#ffffff" stroke="none" x="488" y="232" width="156.77978515625" height="70"/></g><g transform="translate(-254,-190) scale(1,1)"><path fill="none" stroke="#000000" d="M 488 232 L 644.77978515625 232 L 644.77978515625 302 L 488 302 L 488 232 Z Z" stroke-miterlimit="10"/></g><g transform="translate(-254,-190) scale(1,1)"><path fill="none" stroke="#000000" d="M 488 257 L 644.77978515625 257" stroke-miterlimit="10"/></g><g transform="translate(-254,-190) scale(1,1)"><path fill="none" stroke="#000000" d="M 488 267 L 644.77978515625 267" stroke-miterlimit="10"/></g><g transform="translate(-254,-190) scale(1,1)"><g><path fill="none" stroke="none"/><text fill="#000000" stroke="none" font-family="Arial" font-size="13px" font-style="normal" font-weight="bold" text-decoration="none" x="539.285400390625" y="251.5">Singleton</text></g></g><g transform="translate(-254,-190) scale(1,1)"><g><path fill="none" stroke="none"/><text fill="#000000" stroke="none" font-family="Arial" font-size="13px" font-style="normal" font-weight="normal" text-decoration="none" x="493" y="284.5">+GetInstance(): Singleton</text></g></g><g transform="translate(-254,-190) scale(1,1)"><path fill="#ffffd8" stroke="none" d="M 304 240 L 429 240 L 439 250 L 439 279 L 304 279 L 304 240"/></g><g transform="translate(-254,-190) scale(1,1)"><path fill="none" stroke="#000000" d="M 304 240 L 429 240 L 439 250 L 439 279 L 304 279 L 304 240 L 304 240" stroke-miterlimit="10"/></g><g transform="translate(-254,-190) scale(1,1)"><path fill="none" stroke="#000000" d="M 429 240 L 429 250 L 439 250 L 429 240" stroke-miterlimit="10"/></g><g transform="translate(-254,-190) scale(1,1)"><g><path fill="none" stroke="none"/><text fill="#000000" stroke="none" font-family="Arial" font-size="13px" font-style="normal" font-weight="normal" text-decoration="none" x="309" y="258">Abstract Class</text></g></g><g transform="translate(-254,-190) scale(1,1)"><g><path fill="none" stroke="none"/><text fill="#000000" stroke="none" font-family="Arial" font-size="13px" font-style="normal" font-weight="normal" text-decoration="none" x="309" y="273">m_instance = Static</text></g></g><g transform="translate(-254,-190) scale(1,1)"><path fill="none" stroke="#000000" d="M 488 264 L 440 264" stroke-miterlimit="10" stroke-dasharray="3"/></g><g transform="translate(-254,-190) scale(1,1)"><path fill="none" stroke="#000000" d="M 645 272 L 672 272 L 672 200 L 566 200 L 566 232" stroke-miterlimit="10"/></g><g transform="translate(-254,-190) scale(1,1)"><path fill="none" stroke="#000000" d="M 561.790482243984 221.83732514237585 L 566 232 L 570.209517756016 221.83732514237585" stroke-miterlimit="10"/></g><g transform="translate(-254,-190) scale(1,1)"><rect fill="#C0C0C0" stroke="none" x="487" y="367" width="175" height="88" opacity="0.2"/></g><g transform="translate(-254,-190) scale(1,1)"><rect fill="#ffffff" stroke="none" x="480" y="360" width="175" height="88"/></g><g transform="translate(-254,-190) scale(1,1)"><path fill="none" stroke="#000000" d="M 480 360 L 655 360 L 655 448 L 480 448 L 480 360 Z Z" stroke-miterlimit="10"/></g><g transform="translate(-254,-190) scale(1,1)"><path fill="none" stroke="#000000" d="M 480 385 L 655 385" stroke-miterlimit="10"/></g><g transform="translate(-254,-190) scale(1,1)"><path fill="none" stroke="#000000" d="M 480 395 L 655 395" stroke-miterlimit="10"/></g><g transform="translate(-254,-190) scale(1,1)"><g><path fill="none" stroke="none"/><text fill="#000000" stroke="none" font-family="Arial" font-size="13px" font-style="normal" font-weight="bold" text-decoration="none" x="501.02099609375" y="379.5">GameSessionManager</text></g></g><g transform="translate(-254,-190) scale(1,1)"><g><path fill="none" stroke="none"/><text fill="#000000" stroke="none" font-family="Arial" font-size="13px" font-style="normal" font-weight="normal" text-decoration="none" x="485" y="412.5">+ResetLevel(): void</text></g></g><g transform="translate(-254,-190) scale(1,1)"><g><path fill="none" stroke="none"/><text fill="#000000" stroke="none" font-family="Arial" font-size="13px" font-style="normal" font-weight="normal" text-decoration="none" x="485" y="427.5">+LoadNextLevel(): void</text></g></g><g transform="translate(-254,-190) scale(1,1)"><g><path fill="none" stroke="none"/><text fill="#000000" stroke="none" font-family="Arial" font-size="13px" font-style="normal" font-weight="normal" text-decoration="none" x="485" y="442.5">+SpawnEnemies(): void</text></g></g><g transform="translate(-254,-190) scale(1,1)"><path fill="none" stroke="#000000" d="M 567 359 L 566 303" stroke-miterlimit="10"/></g><g transform="translate(-254,-190) scale(1,1)"><path fill="#FFFFFF" stroke="none" d="M 574.7805883308534 323.1717938856236 L 566 303 L 557.9452013063323 323.4724257967757"/></g><g transform="translate(-254,-190) scale(1,1)"><path fill="none" stroke="#000000" d="M 574.7805883308534 323.1717938856236 L 566 303 L 557.9452013063323 323.4724257967757 L 574.7805883308534 323.1717938856236" stroke-miterlimit="10"/></g><g transform="translate(-254,-190) scale(1,1)"><rect fill="#C0C0C0" stroke="none" x="327" y="327" width="106.91259765625" height="72" opacity="0.2"/></g><g transform="translate(-254,-190) scale(1,1)"><rect fill="#ffffff" stroke="none" x="320" y="320" width="106.91259765625" height="72"/></g><g transform="translate(-254,-190) scale(1,1)"><path fill="none" stroke="#000000" d="M 320 320 L 426.91259765625 320 L 426.91259765625 392 L 320 392 L 320 320 Z Z" stroke-miterlimit="10"/></g><g transform="translate(-254,-190) scale(1,1)"><path fill="none" stroke="#000000" d="M 320 345 L 426.91259765625 345" stroke-miterlimit="10"/></g><g transform="translate(-254,-190) scale(1,1)"><path fill="none" stroke="#000000" d="M 320 355 L 426.91259765625 355" stroke-miterlimit="10"/></g><g transform="translate(-254,-190) scale(1,1)"><g><path fill="none" stroke="none"/><text fill="#000000" stroke="none" font-family="Arial" font-size="13px" font-style="normal" font-weight="bold" text-decoration="none" x="355.0322265625" y="339.5">Player</text></g></g><g transform="translate(-254,-190) scale(1,1)"><g><path fill="none" stroke="none"/><text fill="#000000" stroke="none" font-family="Arial" font-size="13px" font-style="normal" font-weight="normal" text-decoration="none" x="325" y="372.5">+Die(): void</text></g></g><g transform="translate(-254,-190) scale(1,1)"><g><path fill="none" stroke="none"/><text fill="#000000" stroke="none" font-family="Arial" font-size="13px" font-style="normal" font-weight="normal" text-decoration="none" x="325" y="387.5">+Succeed(): void</text></g></g><g transform="translate(-254,-190) scale(1,1)"><path fill="#ffffd8" stroke="none" d="M 264 464 L 445 464 L 455 474 L 455 513 L 264 513 L 264 464"/></g><g transform="translate(-254,-190) scale(1,1)"><path fill="none" stroke="#000000" d="M 264 464 L 445 464 L 455 474 L 455 513 L 264 513 L 264 464 L 264 464" stroke-miterlimit="10"/></g><g transform="translate(-254,-190) scale(1,1)"><path fill="none" stroke="#000000" d="M 445 464 L 445 474 L 455 474 L 445 464" stroke-miterlimit="10"/></g><g transform="translate(-254,-190) scale(1,1)"><g><path fill="none" stroke="none"/><text fill="#000000" stroke="none" font-family="Arial" font-size="13px" font-style="normal" font-weight="normal" text-decoration="none" x="269" y="482">Player will call some methods</text><text fill="#000000" stroke="none" font-family="Arial" font-size="13px" font-style="normal" font-weight="normal" text-decoration="none" x="269" y="495">from the instance of</text><text fill="#000000" stroke="none" font-family="Arial" font-size="13px" font-style="normal" font-weight="normal" text-decoration="none" x="269" y="508">GameSessionManager</text></g></g><g transform="translate(-254,-190) scale(1,1)"><path fill="none" stroke="#000000" d="M 372 392 L 372 464" stroke-miterlimit="10" stroke-dasharray="3"/></g><g transform="translate(-254,-190) scale(1,1)"><path fill="none" stroke="#000000" d="M 567 448 L 567 489 L 456 489" stroke-miterlimit="10" stroke-dasharray="3"/></g></g></svg>