<svg version="1.1" xmlns="http://www.w3.org/2000/svg" xmlns:xlink="http://www.w3.org/1999/xlink" width="592.228515625" height="448"><defs/><g><g transform="translate(-214,-78) scale(1,1)"><rect fill="#C0C0C0" stroke="none" x="231" y="319" width="196.966796875" height="160" opacity="0.2"/></g><g transform="translate(-214,-78) scale(1,1)"><rect fill="#ffffff" stroke="none" x="224" y="312" width="196.966796875" height="160"/></g><g transform="translate(-214,-78) scale(1,1)"><path fill="none" stroke="#000000" d="M 224 312 L 420.966796875 312 L 420.966796875 472 L 224 472 L 224 312 Z Z" stroke-miterlimit="10"/></g><g transform="translate(-214,-78) scale(1,1)"><path fill="none" stroke="#000000" d="M 224 337 L 420.966796875 337" stroke-miterlimit="10"/></g><g transform="translate(-214,-78) scale(1,1)"><path fill="none" stroke="#000000" d="M 224 435 L 420.966796875 435" stroke-miterlimit="10"/></g><g transform="translate(-214,-78) scale(1,1)"><g><path fill="none" stroke="none"/><text fill="#000000" stroke="none" font-family="Arial" font-size="13px" font-style="normal" font-weight="bold" text-decoration="none" x="309.359619140625" y="331.5">Tree</text></g></g><g transform="translate(-214,-78) scale(1,1)"><g><path fill="none" stroke="none"/><text fill="#000000" stroke="none" font-family="Arial" font-size="13px" font-style="normal" font-weight="normal" text-decoration="none" x="229" y="354.5">+m_model: TreeModel&amp;</text></g></g><g transform="translate(-214,-78) scale(1,1)"><g><path fill="none" stroke="none"/><text fill="#000000" stroke="none" font-family="Arial" font-size="13px" font-style="normal" font-weight="normal" text-decoration="none" x="229" y="369.5">+m_positions: float[3]</text></g></g><g transform="translate(-214,-78) scale(1,1)"><g><path fill="none" stroke="none"/><text fill="#000000" stroke="none" font-family="Arial" font-size="13px" font-style="normal" font-weight="normal" text-decoration="none" x="229" y="384.5">+m_height: double</text></g></g><g transform="translate(-214,-78) scale(1,1)"><g><path fill="none" stroke="none"/><text fill="#000000" stroke="none" font-family="Arial" font-size="13px" font-style="normal" font-weight="normal" text-decoration="none" x="229" y="399.5">+m_thickness: double</text></g></g><g transform="translate(-214,-78) scale(1,1)"><g><path fill="none" stroke="none"/><text fill="#000000" stroke="none" font-family="Arial" font-size="13px" font-style="normal" font-weight="normal" text-decoration="none" x="229" y="414.5">+m_colorBark: float[3]</text></g></g><g transform="translate(-214,-78) scale(1,1)"><g><path fill="none" stroke="none"/><text fill="#000000" stroke="none" font-family="Arial" font-size="13px" font-style="normal" font-weight="normal" text-decoration="none" x="229" y="429.5">+m_colorLeaf: float[3]</text></g></g><g transform="translate(-214,-78) scale(1,1)"><g><path fill="none" stroke="none"/><text fill="#000000" stroke="none" font-family="Arial" font-size="13px" font-style="normal" font-weight="normal" text-decoration="none" x="229" y="452.5">+Tree(p_model: TreeModel&amp;)</text></g></g><g transform="translate(-214,-78) scale(1,1)"><g><path fill="none" stroke="none"/><text fill="#000000" stroke="none" font-family="Arial" font-size="13px" font-style="normal" font-weight="normal" text-decoration="none" x="229" y="467.5">+const GetModel(): TreeModel&amp;</text></g></g><g transform="translate(-214,-78) scale(1,1)"><rect fill="#C0C0C0" stroke="none" x="479" y="359" width="261.75732421875" height="57" opacity="0.2"/></g><g transform="translate(-214,-78) scale(1,1)"><rect fill="#ffffff" stroke="none" x="472" y="352" width="261.75732421875" height="57"/></g><g transform="translate(-214,-78) scale(1,1)"><path fill="none" stroke="#000000" d="M 472 352 L 733.75732421875 352 L 733.75732421875 409 L 472 409 L 472 352 Z Z" stroke-miterlimit="10"/></g><g transform="translate(-214,-78) scale(1,1)"><path fill="none" stroke="#000000" d="M 472 377 L 733.75732421875 377" stroke-miterlimit="10"/></g><g transform="translate(-214,-78) scale(1,1)"><path fill="none" stroke="#000000" d="M 472 387 L 733.75732421875 387" stroke-miterlimit="10"/></g><g transform="translate(-214,-78) scale(1,1)"><g><path fill="none" stroke="none"/><text fill="#000000" stroke="none" font-family="Arial" font-size="13px" font-style="normal" font-weight="bold" text-decoration="none" x="572.05126953125" y="371.5">TreeModel</text></g></g><g transform="translate(-214,-78) scale(1,1)"><g><path fill="none" stroke="none"/><text fill="#000000" stroke="none" font-family="Arial" font-size="13px" font-style="normal" font-weight="normal" text-decoration="none" x="477" y="404.5">+TreeModel(p_name: const std::string&amp;)</text></g></g><g transform="translate(-214,-78) scale(1,1)"><rect fill="#C0C0C0" stroke="none" x="391" y="95" width="412.228515625" height="85" opacity="0.2"/></g><g transform="translate(-214,-78) scale(1,1)"><rect fill="#ffffff" stroke="none" x="384" y="88" width="412.228515625" height="85"/></g><g transform="translate(-214,-78) scale(1,1)"><path fill="none" stroke="#000000" d="M 384 88 L 796.228515625 88 L 796.228515625 173 L 384 173 L 384 88 Z Z" stroke-miterlimit="10"/></g><g transform="translate(-214,-78) scale(1,1)"><path fill="none" stroke="#000000" d="M 384 113 L 796.228515625 113" stroke-miterlimit="10"/></g><g transform="translate(-214,-78) scale(1,1)"><path fill="none" stroke="#000000" d="M 384 136 L 796.228515625 136" stroke-miterlimit="10"/></g><g transform="translate(-214,-78) scale(1,1)"><g><path fill="none" stroke="none"/><text fill="#000000" stroke="none" font-family="Arial" font-size="13px" font-style="normal" font-weight="bold" text-decoration="none" x="550.73974609375" y="107.5">FactoryModel</text></g></g><g transform="translate(-214,-78) scale(1,1)"><g><path fill="none" stroke="none"/><text fill="#000000" stroke="none" font-family="Arial" font-size="13px" font-style="normal" font-weight="normal" text-decoration="none" x="389" y="130.5">-m_models: std::unordered_map&lt;std::string, std::unique_ptr&lt;Model&gt;&gt;</text></g></g><g transform="translate(-214,-78) scale(1,1)"><g><path fill="none" stroke="none"/><text fill="#000000" stroke="none" font-family="Arial" font-size="13px" font-style="normal" font-weight="normal" text-decoration="none" x="389" y="153.5">+GetModel(p_key: const std::string&amp;)</text></g></g><g transform="translate(-214,-78) scale(1,1)"><g><path fill="none" stroke="none"/><text fill="#000000" stroke="none" font-family="Arial" font-size="13px" font-style="normal" font-weight="normal" text-decoration="none" x="389" y="168.5">+const GetSize(): size_t</text></g></g><g transform="translate(-214,-78) scale(1,1)"><rect fill="#C0C0C0" stroke="none" x="623" y="479" width="54.9951171875" height="44" opacity="0.2"/></g><g transform="translate(-214,-78) scale(1,1)"><rect fill="#ffffff" stroke="none" x="616" y="472" width="54.9951171875" height="44"/></g><g transform="translate(-214,-78) scale(1,1)"><path fill="none" stroke="#000000" d="M 616 472 L 670.9951171875 472 L 670.9951171875 516 L 616 516 L 616 472 Z Z" stroke-miterlimit="10"/></g><g transform="translate(-214,-78) scale(1,1)"><path fill="none" stroke="#000000" d="M 616 497 L 670.9951171875 497" stroke-miterlimit="10"/></g><g transform="translate(-214,-78) scale(1,1)"><path fill="none" stroke="#000000" d="M 616 507 L 670.9951171875 507" stroke-miterlimit="10"/></g><g transform="translate(-214,-78) scale(1,1)"><g><path fill="none" stroke="none"/><text fill="#000000" stroke="none" font-family="Arial" font-size="13px" font-style="normal" font-weight="bold" text-decoration="none" x="622.18212890625" y="491.5">Texture</text></g></g><g transform="translate(-214,-78) scale(1,1)"><rect fill="#C0C0C0" stroke="none" x="535" y="479" width="50.919921875" height="44" opacity="0.2"/></g><g transform="translate(-214,-78) scale(1,1)"><rect fill="#ffffff" stroke="none" x="528" y="472" width="50.919921875" height="44"/></g><g transform="translate(-214,-78) scale(1,1)"><path fill="none" stroke="#000000" d="M 528 472 L 578.919921875 472 L 578.919921875 516 L 528 516 L 528 472 Z Z" stroke-miterlimit="10"/></g><g transform="translate(-214,-78) scale(1,1)"><path fill="none" stroke="#000000" d="M 528 497 L 578.919921875 497" stroke-miterlimit="10"/></g><g transform="translate(-214,-78) scale(1,1)"><path fill="none" stroke="#000000" d="M 528 507 L 578.919921875 507" stroke-miterlimit="10"/></g><g transform="translate(-214,-78) scale(1,1)"><g><path fill="none" stroke="none"/><text fill="#000000" stroke="none" font-family="Arial" font-size="13px" font-style="normal" font-weight="bold" text-decoration="none" x="537.5654296875" y="491.5">Mesh</text></g></g><g transform="translate(-214,-78) scale(1,1)"><rect fill="#C0C0C0" stroke="none" x="535" y="231" width="130.748046875" height="85" opacity="0.2"/></g><g transform="translate(-214,-78) scale(1,1)"><rect fill="#ffffff" stroke="none" x="528" y="224" width="130.748046875" height="85"/></g><g transform="translate(-214,-78) scale(1,1)"><path fill="none" stroke="#000000" d="M 528 224 L 658.748046875 224 L 658.748046875 309 L 528 309 L 528 224 Z Z" stroke-miterlimit="10"/></g><g transform="translate(-214,-78) scale(1,1)"><path fill="none" stroke="#000000" d="M 528 249 L 658.748046875 249" stroke-miterlimit="10"/></g><g transform="translate(-214,-78) scale(1,1)"><path fill="none" stroke="#000000" d="M 528 272 L 658.748046875 272" stroke-miterlimit="10"/></g><g transform="translate(-214,-78) scale(1,1)"><g><path fill="none" stroke="none"/><text fill="#000000" stroke="none" font-family="Arial" font-size="13px" font-style="normal" font-weight="bold" text-decoration="none" x="575.67041015625" y="243.5">Model</text></g></g><g transform="translate(-214,-78) scale(1,1)"><g><path fill="none" stroke="none"/><text fill="#000000" stroke="none" font-family="Arial" font-size="13px" font-style="normal" font-weight="normal" text-decoration="none" x="533" y="266.5">+m_name: std::string</text></g></g><g transform="translate(-214,-78) scale(1,1)"><g><path fill="none" stroke="none"/><text fill="#000000" stroke="none" font-family="Arial" font-size="13px" font-style="normal" font-weight="normal" text-decoration="none" x="533" y="289.5">+explicit Model()</text></g></g><g transform="translate(-214,-78) scale(1,1)"><g><path fill="none" stroke="none"/><text fill="#000000" stroke="none" font-family="Arial" font-size="13px" font-style="normal" font-weight="normal" text-decoration="none" x="533" y="304.5">~Model()</text></g></g><g transform="translate(-214,-78) scale(1,1)"><path fill="none" stroke="#000000" d="M 590 352 L 590 309" stroke-miterlimit="10"/></g><g transform="translate(-214,-78) scale(1,1)"><path fill="#FFFFFF" stroke="none" d="M 598.419035512032 329.3253497152483 L 590 309 L 581.580964487968 329.3253497152483"/></g><g transform="translate(-214,-78) scale(1,1)"><path fill="none" stroke="#000000" d="M 598.419035512032 329.3253497152483 L 590 309 L 581.580964487968 329.3253497152483 L 598.419035512032 329.3253497152483" stroke-miterlimit="10"/></g><g transform="translate(-214,-78) scale(1,1)"><path fill="none" stroke="#000000" d="M 472 396 L 421 396" stroke-miterlimit="10"/></g><g transform="translate(-214,-78) scale(1,1)"><path fill="#000000" stroke="none" d="M 431.16267485762415 391.790482243984 L 421 396 L 431.16267485762415 400.209517756016 L 443 396"/></g><g transform="translate(-214,-78) scale(1,1)"><path fill="none" stroke="#000000" d="M 431.16267485762415 391.790482243984 L 421 396 L 431.16267485762415 400.209517756016 L 443 396 L 431.16267485762415 391.790482243984" stroke-miterlimit="10"/></g><g transform="translate(-214,-78) scale(1,1)"><path fill="none" stroke="#000000" d="M 629 472 L 629 409" stroke-miterlimit="10"/></g><g transform="translate(-214,-78) scale(1,1)"><path fill="#000000" stroke="none" d="M 633.209517756016 419.16267485762415 L 629 409 L 624.790482243984 419.16267485762415 L 629 431"/></g><g transform="translate(-214,-78) scale(1,1)"><path fill="none" stroke="#000000" d="M 633.209517756016 419.16267485762415 L 629 409 L 624.790482243984 419.16267485762415 L 629 431 L 633.209517756016 419.16267485762415" stroke-miterlimit="10"/></g><g transform="translate(-214,-78) scale(1,1)"><path fill="none" stroke="#000000" d="M 572 472 L 572 409" stroke-miterlimit="10"/></g><g transform="translate(-214,-78) scale(1,1)"><path fill="#000000" stroke="none" d="M 576.209517756016 419.16267485762415 L 572 409 L 567.790482243984 419.16267485762415 L 572 431"/></g><g transform="translate(-214,-78) scale(1,1)"><path fill="none" stroke="#000000" d="M 576.209517756016 419.16267485762415 L 572 409 L 567.790482243984 419.16267485762415 L 572 431 L 576.209517756016 419.16267485762415" stroke-miterlimit="10"/></g><g transform="translate(-214,-78) scale(1,1)"><path fill="none" stroke="#000000" d="M 592 224 L 592 173" stroke-miterlimit="10"/></g><g transform="translate(-214,-78) scale(1,1)"><path fill="#FFFFFF" stroke="none" d="M 596.209517756016 183.16267485762415 L 592 173 L 587.790482243984 183.16267485762415 L 592 195"/></g><g transform="translate(-214,-78) scale(1,1)"><path fill="none" stroke="#000000" d="M 596.209517756016 183.16267485762415 L 592 173 L 587.790482243984 183.16267485762415 L 592 195 L 596.209517756016 183.16267485762415" stroke-miterlimit="10"/></g></g></svg>