<svg version="1.1" xmlns="http://www.w3.org/2000/svg" xmlns:xlink="http://www.w3.org/1999/xlink" width="943" height="583"><defs/><g><g transform="translate(-174,-86) scale(1,1)"><rect fill="#C0C0C0" stroke="none" x="271" y="551" width="425.55859375" height="115" opacity="0.2"/></g><g transform="translate(-174,-86) scale(1,1)"><rect fill="#ffffff" stroke="none" x="264" y="544" width="425.55859375" height="115"/></g><g transform="translate(-174,-86) scale(1,1)"><path fill="none" stroke="#000000" d="M 264 544 L 689.55859375 544 L 689.55859375 659 L 264 659 L 264 544 Z Z" stroke-miterlimit="10"/></g><g transform="translate(-174,-86) scale(1,1)"><path fill="none" stroke="#000000" d="M 264 569 L 689.55859375 569" stroke-miterlimit="10"/></g><g transform="translate(-174,-86) scale(1,1)"><path fill="none" stroke="#000000" d="M 264 592 L 689.55859375 592" stroke-miterlimit="10"/></g><g transform="translate(-174,-86) scale(1,1)"><g><path fill="none" stroke="none"/><text fill="#000000" stroke="none" font-family="Arial" font-size="13px" font-style="normal" font-weight="bold" text-decoration="none" x="455.098876953125" y="563.5">Subject</text></g></g><g transform="translate(-174,-86) scale(1,1)"><g><path fill="none" stroke="none"/><text fill="#000000" stroke="none" font-family="Arial" font-size="13px" font-style="normal" font-weight="normal" text-decoration="none" x="269" y="586.5">-m_observers: std::list&lt;std::weak_ptr&lt;IObserver&gt;&gt;</text></g></g><g transform="translate(-174,-86) scale(1,1)"><g><path fill="none" stroke="none"/><text fill="#000000" stroke="none" font-family="Arial" font-size="13px" font-style="normal" font-weight="normal" text-decoration="none" x="269" y="609.5">+AttachObserver(p_observer: const std::shared_ptr&lt;IObserver&gt;&amp;): void</text></g></g><g transform="translate(-174,-86) scale(1,1)"><g><path fill="none" stroke="none"/><text fill="#000000" stroke="none" font-family="Arial" font-size="13px" font-style="normal" font-weight="normal" text-decoration="none" x="269" y="624.5">+DetachObserver(p_observer: const std::shared_ptr&lt;IObserver&gt;&amp;): void</text></g></g><g transform="translate(-174,-86) scale(1,1)"><g><path fill="none" stroke="none"/><text fill="#000000" stroke="none" font-family="Arial" font-size="13px" font-style="normal" font-weight="normal" text-decoration="none" x="269" y="639.5">+Notify(p_entity: Entity&amp;, p_event: const Event&amp;): void</text></g></g><g transform="translate(-174,-86) scale(1,1)"><g><path fill="none" stroke="none"/><text fill="#000000" stroke="none" font-family="Arial" font-size="13px" font-style="normal" font-weight="normal" text-decoration="none" x="269" y="654.5">+HowManyObservers(): void</text></g></g><g transform="translate(-174,-86) scale(1,1)"><path fill="#C0C0C0" stroke="none" d="M 620.5693359375 114.5 C 620.5693359375 108.1487248 625.7180607375 103 632.0693359375 103 C 638.4206111375 103 643.5693359375 108.1487248 643.5693359375 114.5 C 643.5693359375 120.8512752 638.4206111375 126 632.0693359375 126 C 625.7180607375 126 620.5693359375 120.8512752 620.5693359375 114.5 Z" opacity="0.2"/></g><g transform="translate(-174,-86) scale(1,1)"><path fill="#ffffff" stroke="none" d="M 613.5693359375 107.5 C 613.5693359375 101.1487248 618.7180607375 96 625.0693359375 96 C 631.4206111375 96 636.5693359375 101.1487248 636.5693359375 107.5 C 636.5693359375 113.8512752 631.4206111375 119 625.0693359375 119 C 618.7180607375 119 613.5693359375 113.8512752 613.5693359375 107.5 Z"/></g><g transform="translate(-174,-86) scale(1,1)"><path fill="none" stroke="#000000" d="M 613.5693359375 107.5 C 613.5693359375 101.1487248 618.7180607375 96 625.0693359375 96 C 631.4206111375 96 636.5693359375 101.1487248 636.5693359375 107.5 C 636.5693359375 113.8512752 631.4206111375 119 625.0693359375 119 C 618.7180607375 119 613.5693359375 113.8512752 613.5693359375 107.5 Z" stroke-miterlimit="10"/></g><g transform="translate(-174,-86) scale(1,1)"><path fill="none" stroke="#000000" d="M 456 144 L 794.138671875 144" stroke-miterlimit="10"/></g><g transform="translate(-174,-86) scale(1,1)"><g><path fill="none" stroke="none"/><text fill="#000000" stroke="none" font-family="Arial" font-size="13px" font-style="normal" font-weight="bold" text-decoration="none" x="596.533447265625" y="138.5">IObserver</text></g></g><g transform="translate(-174,-86) scale(1,1)"><g><path fill="none" stroke="none"/><text fill="#000000" stroke="none" font-family="Arial" font-size="13px" font-style="normal" font-weight="normal" text-decoration="none" x="461" y="161.5">+Destructor()</text></g></g><g transform="translate(-174,-86) scale(1,1)"><g><path fill="none" stroke="none"/><text fill="#000000" stroke="none" font-family="Arial" font-size="13px" font-style="normal" font-weight="normal" text-decoration="none" x="461" y="176.5">+OnNotify(p_entity: Entity&amp;, p_event: const Event&amp;): void</text></g></g><g transform="translate(-174,-86) scale(1,1)"><rect fill="#C0C0C0" stroke="none" x="255" y="119" width="117.34814453125" height="75" opacity="0.2"/></g><g transform="translate(-174,-86) scale(1,1)"><rect fill="#ffffff" stroke="none" x="248" y="112" width="117.34814453125" height="75"/></g><g transform="translate(-174,-86) scale(1,1)"><path fill="none" stroke="#000000" d="M 248 112 L 365.34814453125 112 L 365.34814453125 187 L 248 187 L 248 112 Z Z" stroke-miterlimit="10"/></g><g transform="translate(-174,-86) scale(1,1)"><path fill="none" stroke="#000000" d="M 248 150 L 365.34814453125 150" stroke-miterlimit="10"/></g><g transform="translate(-174,-86) scale(1,1)"><g><path fill="none" stroke="none"/><text fill="#000000" stroke="none" font-family="Arial" font-size="13px" font-style="normal" font-weight="normal" text-decoration="none" x="263.31005859375" y="129.5">«enumeration»</text></g></g><g transform="translate(-174,-86) scale(1,1)"><g><path fill="none" stroke="none"/><text fill="#000000" stroke="none" font-family="Arial" font-size="13px" font-style="normal" font-weight="bold" text-decoration="none" x="290.052734375" y="144.5">Event</text></g></g><g transform="translate(-174,-86) scale(1,1)"><g><path fill="none" stroke="none"/><text fill="#000000" stroke="none" font-family="Arial" font-size="13px" font-style="normal" font-weight="normal" text-decoration="none" x="253" y="167.5">ENTITY_FELL</text></g></g><g transform="translate(-174,-86) scale(1,1)"><g><path fill="none" stroke="none"/><text fill="#000000" stroke="none" font-family="Arial" font-size="13px" font-style="normal" font-weight="normal" text-decoration="none" x="253" y="182.5">ENTITY_GET_HIT</text></g></g><g transform="translate(-174,-86) scale(1,1)"><rect fill="#C0C0C0" stroke="none" x="807" y="567" width="128" height="72" opacity="0.2"/></g><g transform="translate(-174,-86) scale(1,1)"><rect fill="#ffffff" stroke="none" x="800" y="560" width="128" height="72"/></g><g transform="translate(-174,-86) scale(1,1)"><path fill="none" stroke="#000000" d="M 800 560 L 928 560 L 928 632 L 800 632 L 800 560 Z Z" stroke-miterlimit="10"/></g><g transform="translate(-174,-86) scale(1,1)"><path fill="none" stroke="#000000" d="M 800 585 L 928 585" stroke-miterlimit="10"/></g><g transform="translate(-174,-86) scale(1,1)"><path fill="none" stroke="#000000" d="M 800 595 L 928 595" stroke-miterlimit="10"/></g><g transform="translate(-174,-86) scale(1,1)"><g><path fill="none" stroke="none"/><text fill="#000000" stroke="none" font-family="Arial" font-size="13px" font-style="normal" font-weight="bold" text-decoration="none" x="845.575927734375" y="579.5">Player</text></g></g><g transform="translate(-174,-86) scale(1,1)"><g><path fill="none" stroke="none"/><text fill="#000000" stroke="none" font-family="Arial" font-size="13px" font-style="normal" font-weight="normal" text-decoration="none" x="805" y="612.5">+NotifyOnFall(): void</text></g></g><g transform="translate(-174,-86) scale(1,1)"><g><path fill="none" stroke="none"/><text fill="#000000" stroke="none" font-family="Arial" font-size="13px" font-style="normal" font-weight="normal" text-decoration="none" x="805" y="627.5">+IsOnBridge(): bool</text></g></g><g transform="translate(-174,-86) scale(1,1)"><rect fill="#C0C0C0" stroke="none" x="447" y="279" width="338.138671875" height="72" opacity="0.2"/></g><g transform="translate(-174,-86) scale(1,1)"><rect fill="#ffffff" stroke="none" x="440" y="272" width="338.138671875" height="72"/></g><g transform="translate(-174,-86) scale(1,1)"><path fill="none" stroke="#000000" d="M 440 272 L 778.138671875 272 L 778.138671875 344 L 440 344 L 440 272 Z Z" stroke-miterlimit="10"/></g><g transform="translate(-174,-86) scale(1,1)"><path fill="none" stroke="#000000" d="M 440 297 L 778.138671875 297" stroke-miterlimit="10"/></g><g transform="translate(-174,-86) scale(1,1)"><path fill="none" stroke="#000000" d="M 440 307 L 778.138671875 307" stroke-miterlimit="10"/></g><g transform="translate(-174,-86) scale(1,1)"><g><path fill="none" stroke="none"/><text fill="#000000" stroke="none" font-family="Arial" font-size="13px" font-style="normal" font-weight="bold" text-decoration="none" x="544.764404296875" y="291.5">AchievementObserver</text></g></g><g transform="translate(-174,-86) scale(1,1)"><g><path fill="none" stroke="none"/><text fill="#000000" stroke="none" font-family="Arial" font-size="13px" font-style="normal" font-weight="normal" text-decoration="none" x="445" y="324.5">+OnNotify(p_entity: Entity&amp;, p_event: const Event&amp;): void</text></g></g><g transform="translate(-174,-86) scale(1,1)"><g><path fill="none" stroke="none"/><text fill="#000000" stroke="none" font-family="Arial" font-size="13px" font-style="normal" font-weight="normal" text-decoration="none" x="445" y="339.5">+Unlock(p_achievement: const AchievementType&amp;): void</text></g></g><g transform="translate(-174,-86) scale(1,1)"><path fill="none" stroke="#000000" d="M 544 272 L 544 182" stroke-miterlimit="10"/></g><g transform="translate(-174,-86) scale(1,1)"><path fill="#FFFFFF" stroke="none" d="M 552.419035512032 202.3253497152483 L 544 182 L 535.580964487968 202.3253497152483"/></g><g transform="translate(-174,-86) scale(1,1)"><path fill="none" stroke="#000000" d="M 552.419035512032 202.3253497152483 L 544 182 L 535.580964487968 202.3253497152483 L 552.419035512032 202.3253497152483" stroke-miterlimit="10"/></g><g transform="translate(-174,-86) scale(1,1)"><rect fill="#C0C0C0" stroke="none" x="999" y="511" width="89.57080078125" height="57" opacity="0.2"/></g><g transform="translate(-174,-86) scale(1,1)"><rect fill="#ffffff" stroke="none" x="992" y="504" width="89.57080078125" height="57"/></g><g transform="translate(-174,-86) scale(1,1)"><path fill="none" stroke="#000000" d="M 992 504 L 1081.57080078125 504 L 1081.57080078125 561 L 992 561 L 992 504 Z Z" stroke-miterlimit="10"/></g><g transform="translate(-174,-86) scale(1,1)"><path fill="none" stroke="#000000" d="M 992 529 L 1081.57080078125 529" stroke-miterlimit="10"/></g><g transform="translate(-174,-86) scale(1,1)"><path fill="none" stroke="#000000" d="M 992 539 L 1081.57080078125 539" stroke-miterlimit="10"/></g><g transform="translate(-174,-86) scale(1,1)"><g><path fill="none" stroke="none"/><text fill="#000000" stroke="none" font-family="Arial" font-size="13px" font-style="italic" font-weight="bold" text-decoration="none" x="1020.529052734375" y="523.5">Entity</text></g></g><g transform="translate(-174,-86) scale(1,1)"><g><path fill="none" stroke="none"/><text fill="#000000" stroke="none" font-family="Arial" font-size="13px" font-style="normal" font-weight="normal" text-decoration="none" x="997" y="556.5">+Destructor()</text></g></g><g transform="translate(-174,-86) scale(1,1)"><path fill="none" stroke="#000000" d="M 800 596 L 690 596" stroke-miterlimit="10"/></g><g transform="translate(-174,-86) scale(1,1)"><path fill="#FFFFFF" stroke="none" d="M 710.3253497152483 587.580964487968 L 690 596 L 710.3253497152483 604.419035512032"/></g><g transform="translate(-174,-86) scale(1,1)"><path fill="none" stroke="#000000" d="M 710.3253497152483 587.580964487968 L 690 596 L 710.3253497152483 604.419035512032 L 710.3253497152483 587.580964487968" stroke-miterlimit="10"/></g><g transform="translate(-174,-86) scale(1,1)"><path fill="none" stroke="#000000" d="M 928 600 L 1032 600 L 1032 561" stroke-miterlimit="10"/></g><g transform="translate(-174,-86) scale(1,1)"><path fill="#FFFFFF" stroke="none" d="M 1040.419035512032 581.3253497152483 L 1032 561 L 1023.580964487968 581.3253497152483"/></g><g transform="translate(-174,-86) scale(1,1)"><path fill="none" stroke="#000000" d="M 1040.419035512032 581.3253497152483 L 1032 561 L 1023.580964487968 581.3253497152483 L 1040.419035512032 581.3253497152483" stroke-miterlimit="10"/></g><g transform="translate(-174,-86) scale(1,1)"><path fill="none" stroke="#000000" d="M 521 344 L 521 544" stroke-miterlimit="10"/></g><g transform="translate(-174,-86) scale(1,1)"><g><path fill="none" stroke="none"/><text fill="#000000" stroke="none" font-family="Arial" font-size="13px" font-style="normal" font-weight="normal" text-decoration="none" x="532.5" y="454.5">+Observe</text></g></g><g transform="translate(-174,-86) scale(1,1)"><g><path fill="none" stroke="none"/><text fill="#000000" stroke="none" font-family="Arial" font-size="13px" font-style="normal" font-weight="normal" text-decoration="none" x="497.74365234375" y="371.5">0..*</text></g></g><g transform="translate(-174,-86) scale(1,1)"><g><path fill="none" stroke="none"/><text fill="#000000" stroke="none" font-family="Arial" font-size="13px" font-style="normal" font-weight="normal" text-decoration="none" x="497.74365234375" y="528.5">1..*</text></g></g><g transform="translate(-174,-86) scale(1,1)"><path fill="none" stroke="#000000" d="M 794 160 L 1032 160 L 1032 504" stroke-miterlimit="10"/></g><g transform="translate(-174,-86) scale(1,1)"><g><path fill="none" stroke="none"/><text fill="#000000" stroke="none" font-family="Arial" font-size="13px" font-style="normal" font-weight="normal" text-decoration="none" x="1066.089111328125" y="191.5">+Notify</text></g></g><g transform="translate(-174,-86) scale(1,1)"><g><path fill="none" stroke="none"/><text fill="#000000" stroke="none" font-family="Arial" font-size="13px" font-style="normal" font-weight="normal" text-decoration="none" x="811.5" y="178.5">1</text></g></g><g transform="translate(-174,-86) scale(1,1)"><g><path fill="none" stroke="none"/><text fill="#000000" stroke="none" font-family="Arial" font-size="13px" font-style="normal" font-weight="normal" text-decoration="none" x="1015.5" y="488.5">1</text></g></g><g transform="translate(-174,-86) scale(1,1)"><rect fill="#C0C0C0" stroke="none" x="191" y="279" width="231.498046875" height="60" opacity="0.2"/></g><g transform="translate(-174,-86) scale(1,1)"><rect fill="#ffffff" stroke="none" x="184" y="272" width="231.498046875" height="60"/></g><g transform="translate(-174,-86) scale(1,1)"><path fill="none" stroke="#000000" d="M 184 272 L 415.498046875 272 L 415.498046875 332 L 184 332 L 184 272 Z Z" stroke-miterlimit="10"/></g><g transform="translate(-174,-86) scale(1,1)"><path fill="none" stroke="#000000" d="M 184 310 L 415.498046875 310" stroke-miterlimit="10"/></g><g transform="translate(-174,-86) scale(1,1)"><g><path fill="none" stroke="none"/><text fill="#000000" stroke="none" font-family="Arial" font-size="13px" font-style="normal" font-weight="normal" text-decoration="none" x="256.385009765625" y="289.5">«enumeration»</text></g></g><g transform="translate(-174,-86) scale(1,1)"><g><path fill="none" stroke="none"/><text fill="#000000" stroke="none" font-family="Arial" font-size="13px" font-style="normal" font-weight="bold" text-decoration="none" x="248.082275390625" y="304.5">AchievementType</text></g></g><g transform="translate(-174,-86) scale(1,1)"><g><path fill="none" stroke="none"/><text fill="#000000" stroke="none" font-family="Arial" font-size="13px" font-style="normal" font-weight="normal" text-decoration="none" x="189" y="327.5">ACHIEVEMENT_FELL_OFF_BRIDGE</text></g></g></g></svg>